<?xml version="1.0" standalone="no"?>
<!DOCTYPE svg PUBLIC "-//W3C//DTD SVG 1.1//EN" "http://www.w3.org/Graphics/SVG/1.1/DTD/svg11.dtd" >
<svg xmlns="http://www.w3.org/2000/svg">
<defs>
<font id="Nebula" horiz-adv-x="2048" >
<font-face units-per-em="2048" ascent="1716" descent="-418" />
<missing-glyph horiz-adv-x="2048" />
<glyph unicode="&#x0;" horiz-adv-x="0" d="" />
<glyph unicode="&#x1d;" horiz-adv-x="0" d="" />
<glyph unicode=" " horiz-adv-x="1000" d="" />
<glyph unicode="!" horiz-adv-x="500" d="M200 -991 L200 -991 Q200 -995 197 -997 Q195 -1000 191 -1000 L8 -1000 Q5 -1000 2 -997 Q0 -995 0 -991 L0 -322 Q0 -319 2 -316 Q5 -314 8 -314 L191 -314 Q195 -314 197 -316 Q200 -319 200 -322 L200 -991 M198 0 L198 0 Q199 0 199 0 Q200 0 200 -1 L200 -170 Q200 -170 199 -170 Q199 -171 198 -171 L1 -171 Q0 -171 0 -170 Q0 -170 0 -170 L0 -1 Q0 0 0 0 Q0 0 1 0 L198 0 " />
<glyph unicode="&quot;" horiz-adv-x="814" d="M514 -991 L514 -991 Q514 -995 511 -997 Q509 -1000 505 -1000 L351 -1000 Q348 -1000 345 -997 Q343 -995 343 -992 L343 -580 Q343 -577 345 -574 Q348 -572 351 -572 L478 -572 Q481 -572 483 -574 Q486 -576 486 -580 L514 -991 M0 -991 L0 -991 Q0 -995 2 -997 Q5 -1000 9 -1000 L163 -1000 Q166 -1000 168 -997 Q171 -995 171 -992 L171 -580 Q171 -577 168 -574 Q166 -572 163 -572 L36 -572 Q33 -572 30 -574 Q28 -576 28 -580 L0 -991 " />
<glyph unicode="#" horiz-adv-x="1725" d="M1416 -758 L1416 -758 Q1420 -758 1422 -754 Q1425 -751 1424 -747 L1380 -592 Q1377 -586 1372 -586 L1038 -586 L988 -415 L1318 -415 Q1322 -415 1324 -411 Q1327 -408 1326 -404 L1282 -249 Q1279 -243 1274 -243 L938 -243 L870 -9 Q870 -5 867 -2 Q865 0 861 0 L678 0 Q675 0 672 -2 Q670 -5 670 -9 L738 -243 L538 -243 L470 -9 Q470 -5 467 -2 Q465 0 461 0 L278 0 Q275 0 272 -2 Q270 -5 270 -9 L338 -243 L10 -243 Q5 -243 2 -246 Q0 -250 1 -254 L45 -408 Q48 -415 54 -415 L388 -415 L438 -586 L108 -586 Q103 -586 100 -589 Q98 -593 99 -597 L143 -751 Q146 -758 152 -758 L487 -758 L556 -992 Q556 -995 558 -997 Q561 -1000 564 -1000 L747 -1000 Q751 -1000 753 -997 Q756 -995 756 -992 L687 -758 L887 -758 L956 -992 Q956 -995 958 -997 Q961 -1000 964 -1000 L1147 -1000 Q1151 -1000 1153 -997 Q1156 -995 1156 -992 L1087 -758 L1416 -758 M788 -415 L788 -415 L838 -586 L638 -586 L588 -415 L788 -415 " />
<glyph unicode="$" horiz-adv-x="1725" d="M1140 -585 L1140 -585 Q1258 -585 1341 -501 Q1425 -418 1425 -300 L1425 -285 Q1425 -167 1341 -83 Q1258 0 1140 0 L812 0 L812 162 Q812 166 809 168 Q807 171 804 171 L621 171 Q618 171 615 168 Q613 166 613 162 L613 0 L65 0 Q62 0 59 -2 Q57 -5 57 -9 L57 -163 Q57 -166 59 -168 Q62 -171 65 -171 L613 -171 L613 -414 L285 -414 Q167 -414 83 -497 Q0 -581 0 -699 L0 -713 Q0 -831 83 -914 Q167 -998 285 -998 L613 -998 L613 -1161 Q613 -1164 615 -1166 Q618 -1169 621 -1169 L804 -1169 Q807 -1169 809 -1166 Q812 -1164 812 -1161 L812 -998 L1360 -998 Q1363 -998 1365 -995 Q1368 -993 1368 -989 L1368 -836 Q1368 -832 1365 -829 Q1363 -827 1360 -827 L812 -827 L812 -585 L1140 -585 M285 -585 L285 -585 L613 -585 L613 -827 L285 -827 Q249 -827 224 -802 Q199 -777 199 -741 L199 -670 Q199 -635 224 -610 Q249 -585 285 -585 M1226 -257 L1226 -257 L1226 -328 Q1226 -363 1201 -388 Q1176 -414 1140 -414 L812 -414 L812 -171 L1140 -171 Q1176 -171 1201 -196 Q1226 -221 1226 -257 " />
<glyph unicode="%" horiz-adv-x="1272" d="M879 -988 L879 -988 Q881 -992 878 -996 Q876 -1000 871 -1000 L662 -1000 Q658 -1000 655 -996 L93 -13 Q91 -9 93 -4 Q96 0 101 0 L309 0 Q314 0 317 -5 L879 -988 M800 0 L800 0 Q871 0 921 -50 Q972 -101 972 -172 L972 -172 Q972 -243 921 -293 Q871 -343 800 -343 L800 -343 Q729 -343 679 -293 Q629 -243 629 -172 L629 -172 Q629 -101 679 -50 Q729 0 800 0 L800 0 M172 -658 L172 -658 Q243 -658 293 -708 Q343 -758 343 -829 L343 -829 Q343 -900 293 -950 Q243 -1000 172 -1000 L172 -1000 Q101 -1000 50 -950 Q0 -900 0 -829 L0 -829 Q0 -758 50 -708 Q101 -658 172 -658 L172 -658 " />
<glyph unicode="&amp;" horiz-adv-x="1871" d="M286 -585 L286 -585 L1563 -585 Q1566 -585 1568 -582 Q1571 -580 1571 -577 L1571 -423 Q1571 -419 1568 -416 Q1566 -414 1563 -414 L1371 -414 L1371 -257 Q1371 -150 1296 -75 Q1221 0 1114 0 L257 0 Q150 0 75 -75 Q0 -150 0 -257 L0 -328 Q0 -427 66 -500 Q0 -572 0 -671 L0 -743 Q0 -849 75 -924 Q150 -1000 257 -1000 L1163 -1000 Q1166 -1000 1168 -997 Q1171 -995 1171 -991 L1171 -837 Q1171 -833 1168 -830 Q1166 -828 1163 -828 L286 -828 Q250 -828 225 -803 Q200 -778 200 -743 L200 -671 Q200 -636 225 -610 Q250 -585 286 -585 M1171 -257 L1171 -257 L1171 -414 L286 -414 Q250 -414 225 -389 Q200 -364 200 -328 L200 -257 Q200 -222 225 -196 Q250 -171 286 -171 L1086 -171 Q1121 -171 1146 -196 Q1171 -222 1171 -257 " />
<glyph unicode="'" horiz-adv-x="500" d="M200 -1000 L200 -1000 L0 -1000 L29 -571 L171 -571 L200 -1000 " />
<glyph unicode="(" horiz-adv-x="671" d="M362 170 Q366 170 368 167 Q371 165 371 84 Q371 4 368 1 Q366 -1 285 -1 Q250 -1 225 -26 Q200 -51 200 -87 L200 -913 Q200 -949 225 -974 Q250 -999 285 -999 Q366 -999 368 -1001 Q371 -1004 371 -1085 Q371 -1165 368 -1167 Q366 -1170 285 -1170 Q167 -1170 83 -1086 Q0 -1003 0 -885 L0 -115 Q0 3 83 86 Q167 170 285 170 L362 170 " />
<glyph unicode=")" horiz-adv-x="671" d="M9 170 L86 170 Q204 170 287 86 Q371 3 371 -115 L371 -885 Q371 -1003 287 -1086 Q204 -1170 86 -1170 Q5 -1170 2 -1167 Q0 -1165 0 -1085 Q0 -1004 2 -1001 Q5 -999 86 -999 Q121 -999 146 -974 Q171 -949 171 -913 L171 -87 Q171 -51 146 -26 Q121 -1 86 -1 Q5 -1 2 1 Q0 4 0 84 Q0 165 2 167 Q5 170 9 170 " />
<glyph unicode="*" horiz-adv-x="1004" d="M703 -686 L703 -686 Q704 -682 702 -679 Q700 -676 696 -675 L440 -628 L620 -440 Q623 -437 622 -433 Q622 -429 619 -427 L489 -332 Q485 -330 481 -331 Q478 -332 476 -335 L352 -564 L228 -335 Q226 -332 222 -331 Q219 -330 216 -332 L85 -427 Q82 -429 82 -433 Q82 -437 84 -440 L264 -628 L8 -675 Q4 -676 2 -679 Q0 -683 1 -686 L51 -839 Q52 -843 55 -844 Q59 -846 63 -844 L298 -732 L263 -990 Q263 -994 265 -997 Q268 -1000 272 -1000 L433 -1000 Q436 -1000 438 -997 Q441 -994 441 -990 L407 -732 L642 -844 Q645 -846 648 -844 Q652 -843 653 -839 L703 -686 " />
<glyph unicode="+" horiz-adv-x="1015" d="M709 -599 L709 -599 Q711 -599 713 -596 Q715 -594 715 -590 L715 -436 Q715 -432 713 -429 Q711 -427 709 -427 L458 -427 L458 -162 Q458 -160 455 -158 Q453 -156 449 -156 L266 -156 Q263 -156 260 -158 Q258 -160 258 -162 L258 -427 L7 -427 Q4 -427 2 -429 Q0 -432 0 -436 L0 -590 Q0 -594 2 -596 Q4 -599 7 -599 L258 -599 L258 -864 Q258 -867 260 -868 Q263 -870 266 -870 L449 -870 Q453 -870 455 -868 Q458 -867 458 -864 L458 -599 L709 -599 " />
<glyph unicode="," horiz-adv-x="634" d="M137 -138 L137 -138 Q140 -143 145 -143 L325 -143 Q330 -143 332 -139 Q334 -135 332 -130 L142 196 Q139 200 135 200 L10 200 Q5 200 2 196 Q0 192 2 188 L137 -138 " />
<glyph unicode="-" horiz-adv-x="872" d="M566 -419 L566 -419 Q568 -419 570 -421 Q572 -424 572 -427 L572 -582 Q572 -585 570 -587 Q568 -590 566 -590 L7 -590 Q4 -590 2 -587 Q0 -585 0 -582 L0 -427 Q0 -424 2 -421 Q4 -419 7 -419 L566 -419 " />
<glyph unicode="." horiz-adv-x="500" d="M192 0 L192 0 Q195 0 197 -2 Q200 -5 200 -9 L200 -192 Q200 -195 197 -197 Q195 -200 192 -200 L9 -200 Q5 -200 2 -197 Q0 -195 0 -192 L0 -9 Q0 -5 2 -2 Q5 0 9 0 L192 0 " />
<glyph unicode="/" horiz-adv-x="922" d="M620 -988 L620 -988 Q622 -993 619 -996 Q617 -1000 612 -1000 L431 -1000 Q426 -1000 423 -995 L2 -12 Q0 -8 2 -4 Q5 0 9 0 L191 0 Q196 0 199 -5 L620 -988 " />
<glyph unicode="0" horiz-adv-x="1729" d="M1143 -1000 L1143 -1000 Q1262 -1000 1345 -916 Q1429 -833 1429 -714 L1429 -286 Q1429 -167 1345 -83 Q1262 0 1143 0 L286 0 Q168 0 84 -83 Q0 -167 0 -286 L0 -714 Q0 -833 84 -916 Q168 -1000 286 -1000 L1143 -1000 M1229 -743 L1229 -743 Q1229 -778 1204 -803 Q1179 -829 1143 -829 L286 -829 Q251 -829 225 -803 Q200 -778 200 -743 L200 -257 Q200 -222 225 -196 Q251 -171 286 -171 L1143 -171 Q1179 -171 1204 -196 Q1229 -222 1229 -257 L1229 -743 " />
<glyph unicode="1" horiz-adv-x="700" d="M400 -991 L400 -991 Q400 -995 397 -997 Q395 -1000 392 -1000 L9 -1000 Q5 -1000 2 -997 Q0 -995 0 -991 L0 -837 Q0 -833 2 -830 Q5 -828 9 -828 L200 -828 L200 -8 Q200 -5 202 -2 Q205 0 209 0 L392 0 Q395 0 397 -2 Q400 -5 400 -8 L400 -991 " />
<glyph unicode="2" horiz-adv-x="1729" d="M1229 -742 L1229 -742 Q1229 -778 1203 -803 Q1178 -828 1143 -828 L66 -828 Q62 -828 59 -830 Q57 -833 57 -837 L57 -991 Q57 -995 59 -997 Q62 -1000 66 -1000 L1143 -1000 Q1261 -1000 1345 -916 Q1429 -832 1429 -714 L1429 -700 Q1429 -581 1345 -497 Q1261 -414 1143 -414 L286 -414 Q250 -414 225 -389 Q200 -364 200 -328 L200 -171 L1363 -171 Q1366 -171 1368 -168 Q1371 -166 1371 -162 L1371 -8 Q1371 -5 1368 -2 Q1366 0 1363 0 L9 0 Q5 0 2 -2 Q0 -5 0 -8 L0 -300 Q0 -418 83 -501 Q167 -585 286 -585 L1143 -585 Q1178 -585 1203 -610 Q1229 -636 1229 -671 L1229 -742 " />
<glyph unicode="3" horiz-adv-x="1729" d="M1429 -715 L1429 -715 L1429 -700 Q1429 -584 1347 -500 Q1429 -417 1429 -300 L1429 -286 Q1429 -168 1345 -84 Q1262 0 1143 0 L9 0 Q5 0 2 -3 Q0 -6 0 -9 L0 -163 Q0 -167 3 -169 Q6 -172 9 -172 L1143 -172 Q1179 -172 1204 -197 Q1229 -222 1229 -258 L1229 -329 Q1229 -364 1204 -389 Q1179 -415 1143 -415 L152 -415 Q148 -415 145 -417 Q143 -420 143 -423 L143 -578 Q143 -581 145 -583 Q148 -586 152 -586 L1143 -586 Q1179 -586 1204 -611 Q1229 -636 1229 -672 L1229 -743 Q1229 -779 1204 -804 Q1179 -829 1143 -829 L9 -829 Q6 -829 3 -831 Q0 -834 0 -838 L0 -992 Q0 -995 3 -997 Q6 -1000 9 -1000 L1143 -1000 Q1262 -1000 1345 -916 Q1429 -833 1429 -715 " />
<glyph unicode="4" horiz-adv-x="1729" d="M1229 -992 L1229 -992 Q1229 -995 1231 -997 Q1234 -1000 1238 -1000 L1420 -1000 Q1424 -1000 1426 -997 Q1429 -995 1429 -992 L1429 -9 Q1429 -5 1426 -2 Q1424 0 1420 0 L1238 0 Q1234 0 1231 -2 Q1229 -5 1229 -9 L1229 -329 L286 -329 Q168 -329 84 -412 Q0 -496 0 -615 L0 -992 Q0 -995 2 -997 Q5 -1000 9 -1000 L192 -1000 Q195 -1000 197 -997 Q200 -995 200 -992 L200 -586 Q200 -551 225 -525 Q251 -500 286 -500 L1229 -500 L1229 -992 " />
<glyph unicode="5" horiz-adv-x="1729" d="M200 -829 L200 -829 L1363 -829 Q1367 -829 1369 -831 Q1372 -834 1372 -838 L1372 -992 Q1372 -995 1369 -997 Q1367 -1000 1363 -1000 L9 -1000 Q5 -1000 2 -997 Q0 -995 0 -992 L0 -423 Q0 -420 2 -417 Q5 -415 9 -415 L1143 -415 Q1179 -415 1204 -389 Q1229 -364 1229 -329 L1229 -258 Q1229 -222 1204 -197 Q1179 -172 1143 -172 L9 -172 Q5 -172 2 -169 Q0 -167 0 -163 L0 -9 Q0 -5 2 -2 Q5 0 9 0 L1143 0 Q1262 0 1345 -84 Q1429 -168 1429 -286 L1429 -300 Q1429 -419 1345 -502 Q1262 -586 1143 -586 L200 -586 L200 -829 " />
<glyph unicode="6" horiz-adv-x="1728" d="M1371 -837 L1371 -837 Q1371 -834 1368 -831 Q1366 -829 1362 -829 L285 -829 Q250 -829 225 -804 Q200 -779 200 -743 L200 -586 L1142 -586 Q1261 -586 1344 -502 Q1428 -419 1428 -300 L1428 -286 Q1428 -168 1344 -84 Q1261 0 1142 0 L285 0 Q167 0 83 -84 Q0 -168 0 -286 L0 -715 Q0 -833 83 -916 Q167 -1000 285 -1000 L1362 -1000 Q1366 -1000 1368 -997 Q1371 -995 1371 -992 L1371 -837 M1228 -329 L1228 -329 Q1228 -364 1203 -389 Q1178 -415 1142 -415 L200 -415 L200 -257 Q200 -222 225 -197 Q250 -172 285 -172 L1142 -172 Q1178 -172 1203 -197 Q1228 -222 1228 -257 L1228 -329 " />
<glyph unicode="7" horiz-adv-x="1729" d="M0 -837 L0 -837 Q0 -833 2 -830 Q5 -828 9 -828 L1143 -828 Q1179 -828 1204 -803 Q1229 -778 1229 -743 L1229 -8 Q1229 -5 1231 -2 Q1234 0 1237 0 L1420 0 Q1424 0 1426 -2 Q1429 -5 1429 -8 L1429 -714 Q1429 -832 1345 -916 Q1261 -1000 1143 -1000 L9 -1000 Q5 -1000 2 -997 Q0 -995 0 -991 L0 -837 " />
<glyph unicode="8" horiz-adv-x="1728" d="M1428 -714 L1428 -714 L1428 -700 Q1428 -583 1347 -500 Q1428 -417 1428 -300 L1428 -285 Q1428 -167 1344 -83 Q1261 0 1143 0 L286 0 Q167 0 83 -83 Q0 -167 0 -285 L0 -300 Q0 -417 82 -500 Q0 -583 0 -700 L0 -714 Q0 -832 83 -916 Q167 -1000 286 -1000 L1143 -1000 Q1261 -1000 1344 -916 Q1428 -832 1428 -714 M1228 -257 L1228 -257 L1228 -328 Q1228 -364 1203 -389 Q1178 -414 1143 -414 L286 -414 Q250 -414 225 -389 Q200 -364 200 -328 L200 -257 Q200 -221 225 -196 Q250 -171 286 -171 L1143 -171 Q1178 -171 1203 -196 Q1228 -221 1228 -257 M1228 -671 L1228 -671 L1228 -742 Q1228 -778 1203 -803 Q1178 -828 1143 -828 L286 -828 Q250 -828 225 -803 Q200 -778 200 -742 L200 -671 Q200 -636 225 -610 Q250 -585 286 -585 L1143 -585 Q1178 -585 1203 -610 Q1228 -636 1228 -671 " />
<glyph unicode="9" horiz-adv-x="1729" d="M57 -162 L57 -162 Q57 -166 59 -168 Q62 -171 66 -171 L1143 -171 Q1178 -171 1203 -196 Q1229 -221 1229 -257 L1229 -414 L286 -414 Q167 -414 83 -497 Q0 -581 0 -700 L0 -714 Q0 -832 83 -916 Q167 -1000 286 -1000 L1143 -1000 Q1261 -1000 1345 -916 Q1429 -832 1429 -714 L1429 -285 Q1429 -167 1345 -83 Q1261 0 1143 0 L66 0 Q62 0 59 -2 Q57 -5 57 -8 L57 -162 M200 -671 L200 -671 Q200 -636 225 -610 Q250 -585 286 -585 L1229 -585 L1229 -742 Q1229 -778 1203 -803 Q1178 -828 1143 -828 L286 -828 Q250 -828 225 -803 Q200 -778 200 -742 L200 -671 " />
<glyph unicode=":" horiz-adv-x="500" d="M192 0 L192 0 Q195 0 197 -2 Q200 -5 200 -9 L200 -192 Q200 -195 197 -197 Q195 -200 192 -200 L9 -200 Q5 -200 2 -197 Q0 -195 0 -192 L0 -9 Q0 -5 2 -2 Q5 0 9 0 L192 0 M191 -600 L191 -600 Q194 -600 196 -602 Q199 -605 199 -609 L199 -792 Q199 -795 196 -797 Q194 -800 191 -800 L8 -800 Q4 -800 1 -797 Q-1 -795 -1 -792 L-1 -609 Q-1 -605 1 -602 Q4 -600 8 -600 L191 -600 " />
<glyph unicode=";" horiz-adv-x="634" d="M136 -138 L136 -138 Q139 -143 144 -143 L324 -143 Q329 -143 331 -139 Q333 -135 331 -130 L141 196 Q138 200 134 200 L9 200 Q4 200 1 196 Q-1 192 1 188 L136 -138 M192 -599 L192 -599 Q195 -599 197 -601 Q200 -604 200 -608 L200 -791 Q200 -794 197 -796 Q195 -799 192 -799 L9 -799 Q5 -799 2 -796 Q0 -794 0 -791 L0 -608 Q0 -604 2 -601 Q5 -599 9 -599 L192 -599 " />
<glyph unicode="&lt;" horiz-adv-x="958" d="M658 -918 L658 -766 Q658 -761 653 -758 L165 -503 L653 -249 Q658 -246 658 -241 L658 -89 Q658 -84 654 -81 Q650 -79 645 -81 L5 -415 Q0 -418 0 -423 L0 -584 Q0 -589 5 -591 L645 -925 Q650 -927 654 -925 Q658 -923 658 -918 L658 -918 " />
<glyph unicode="=" horiz-adv-x="1014" d="M708 -583 L708 -583 Q711 -583 712 -585 Q714 -588 714 -592 L714 -746 Q714 -750 712 -752 Q711 -755 708 -755 L6 -755 Q4 -755 2 -752 Q0 -750 0 -746 L0 -592 Q0 -588 2 -585 Q4 -583 6 -583 L708 -583 M708 -240 L708 -240 Q711 -240 712 -243 Q714 -246 714 -249 L714 -403 Q714 -407 712 -409 Q711 -412 708 -412 L6 -412 Q4 -412 2 -409 Q0 -407 0 -403 L0 -249 Q0 -246 2 -243 Q4 -240 6 -240 L708 -240 " />
<glyph unicode="&gt;" horiz-adv-x="958" d="M0 -918 L0 -918 Q0 -923 4 -925 Q8 -927 13 -925 L653 -591 Q658 -589 658 -584 L658 -423 Q658 -418 653 -415 L13 -81 Q8 -79 4 -81 Q0 -84 0 -89 L0 -241 Q0 -246 5 -249 L493 -503 L5 -758 Q0 -761 0 -766 L0 -918 " />
<glyph unicode="?" horiz-adv-x="1729" d="M0 -991 L0 -991 Q0 -995 2 -997 Q5 -1000 9 -1000 L1172 -1000 Q1278 -1000 1353 -924 Q1429 -849 1429 -743 L1429 -700 Q1429 -593 1353 -518 Q1278 -443 1172 -443 L200 -443 L200 -337 Q200 -333 197 -330 Q195 -328 192 -328 L9 -328 Q5 -328 2 -330 Q0 -333 0 -337 L0 -605 Q0 -609 2 -611 Q5 -614 9 -614 L1143 -614 Q1179 -614 1204 -639 Q1229 -664 1229 -700 L1229 -743 Q1229 -778 1204 -803 Q1179 -828 1143 -828 L9 -828 Q5 -828 2 -830 Q0 -833 0 -837 L0 -991 M200 -163 L200 -163 Q200 -166 197 -168 Q195 -171 192 -171 L9 -171 Q5 -171 2 -168 Q0 -166 0 -163 L0 -8 Q0 -5 2 -2 Q5 0 9 0 L192 0 Q195 0 197 -2 Q200 -5 200 -8 L200 -163 " />
<glyph unicode="@" horiz-adv-x="1728" d="M0 -743 L0 -743 Q0 -850 75 -925 Q150 -1000 257 -1000 L1171 -1000 Q1278 -1000 1353 -925 Q1428 -850 1428 -743 L1428 -9 Q1428 -5 1425 -2 Q1423 0 1420 0 L686 0 Q579 0 503 -75 Q428 -151 428 -257 L428 -357 Q428 -464 503 -539 Q579 -615 686 -615 L1228 -615 L1228 -743 Q1228 -779 1203 -804 Q1178 -829 1143 -829 L286 -829 Q250 -829 225 -804 Q200 -779 200 -743 L200 -9 Q200 -5 197 -2 Q195 0 191 0 L8 0 Q5 0 2 -2 Q0 -5 0 -9 L0 -743 M1228 -172 L1228 -172 L1228 -443 L714 -443 Q679 -443 653 -418 Q628 -393 628 -357 L628 -257 Q628 -222 653 -197 Q679 -172 714 -172 L1228 -172 " />
<glyph unicode="A" horiz-adv-x="1804" d="M914 -924 L914 -924 Q994 -1000 1096 -1000 L1495 -1000 Q1499 -1000 1501 -997 Q1504 -995 1504 -991 L1504 -8 Q1504 -5 1501 -2 Q1499 0 1495 0 L1312 0 Q1309 0 1306 -2 Q1304 -5 1304 -8 L1304 -828 L1137 -828 Q1103 -828 1077 -803 L271 -2 Q268 0 265 0 L10 0 Q4 0 2 -5 Q0 -10 4 -14 L914 -924 " />
<glyph unicode="B" horiz-adv-x="1729" d="M1429 -714 L1429 -714 L1429 -700 Q1429 -583 1347 -500 Q1429 -417 1429 -300 L1429 -285 Q1429 -167 1345 -83 Q1261 0 1143 0 L9 0 Q5 0 2 -2 Q0 -5 0 -8 L0 -991 Q0 -995 2 -997 Q5 -1000 9 -1000 L1143 -1000 Q1261 -1000 1345 -916 Q1429 -832 1429 -714 M200 -828 L200 -828 L200 -585 L1143 -585 Q1178 -585 1203 -610 Q1229 -636 1229 -671 L1229 -743 Q1229 -778 1203 -803 Q1178 -828 1143 -828 L200 -828 M1229 -257 L1229 -257 L1229 -328 Q1229 -364 1203 -389 Q1178 -414 1143 -414 L200 -414 L200 -171 L1143 -171 Q1178 -171 1203 -196 Q1229 -221 1229 -257 " />
<glyph unicode="C" horiz-adv-x="1729" d="M286 -171 L286 -171 Q250 -171 225 -196 Q200 -222 200 -257 L200 -743 Q200 -778 225 -803 Q250 -829 286 -829 L1420 -829 Q1424 -829 1426 -831 Q1429 -834 1429 -837 L1429 -991 Q1429 -995 1426 -997 Q1424 -1000 1420 -1000 L286 -1000 Q167 -1000 83 -916 Q0 -833 0 -714 L0 -286 Q0 -167 83 -83 Q167 0 286 0 L1420 0 Q1424 0 1426 -2 Q1429 -5 1429 -9 L1429 -163 Q1429 -166 1426 -168 Q1424 -171 1420 -171 L286 -171 " />
<glyph unicode="D" horiz-adv-x="1728" d="M1142 -1000 L1142 -1000 Q1261 -1000 1344 -916 Q1428 -833 1428 -714 L1428 -286 Q1428 -167 1344 -83 Q1261 0 1142 0 L8 0 Q5 0 2 -2 Q0 -5 0 -9 L0 -991 Q0 -995 2 -997 Q5 -1000 8 -1000 L1142 -1000 M1228 -743 L1228 -743 Q1228 -778 1203 -803 Q1178 -829 1142 -829 L200 -829 L200 -171 L1142 -171 Q1178 -171 1203 -196 Q1228 -222 1228 -257 L1228 -743 " />
<glyph unicode="E" horiz-adv-x="1729" d="M200 -743 L200 -743 Q200 -778 225 -803 Q250 -829 286 -829 L1420 -829 Q1424 -829 1426 -831 Q1429 -834 1429 -837 L1429 -991 Q1429 -995 1426 -997 Q1424 -1000 1420 -1000 L286 -1000 Q167 -1000 83 -916 Q0 -833 0 -714 L0 -286 Q0 -167 83 -83 Q167 0 286 0 L1420 0 Q1424 0 1426 -2 Q1429 -5 1429 -9 L1429 -163 Q1429 -166 1426 -168 Q1424 -171 1420 -171 L286 -171 Q250 -171 225 -196 Q200 -222 200 -257 L200 -414 L1277 -414 Q1281 -414 1283 -416 Q1286 -419 1286 -423 L1286 -577 Q1286 -581 1283 -583 Q1281 -586 1277 -586 L200 -586 L200 -743 " />
<glyph unicode="F" horiz-adv-x="1729" d="M200 -743 L200 -743 Q200 -778 225 -803 Q251 -829 286 -829 L1420 -829 Q1424 -829 1426 -831 Q1429 -834 1429 -837 L1429 -991 Q1429 -995 1426 -997 Q1424 -1000 1420 -1000 L258 -1000 Q151 -1000 75 -924 Q0 -849 0 -743 L0 -9 Q0 -5 2 -2 Q5 0 9 0 L192 0 Q195 0 197 -2 Q200 -5 200 -9 L200 -329 L1278 -329 Q1281 -329 1283 -331 Q1286 -334 1286 -337 L1286 -491 Q1286 -495 1283 -497 Q1281 -500 1278 -500 L200 -500 L200 -743 " />
<glyph unicode="G" horiz-adv-x="1729" d="M286 -171 L286 -171 Q250 -171 225 -196 Q200 -222 200 -257 L200 -743 Q200 -778 225 -803 Q250 -829 286 -829 L1420 -829 Q1424 -829 1426 -831 Q1429 -834 1429 -837 L1429 -991 Q1429 -995 1426 -997 Q1424 -1000 1420 -1000 L286 -1000 Q167 -1000 83 -916 Q0 -833 0 -714 L0 -286 Q0 -167 83 -83 Q167 0 286 0 L1171 0 Q1278 0 1353 -75 Q1429 -151 1429 -257 L1429 -491 Q1429 -495 1426 -497 Q1424 -500 1420 -500 L1237 -500 Q1234 -500 1231 -497 Q1229 -495 1229 -491 L1229 -257 Q1229 -222 1203 -196 Q1178 -171 1143 -171 L286 -171 " />
<glyph unicode="H" horiz-adv-x="1729" d="M1429 -991 L1429 -991 Q1429 -995 1426 -997 Q1424 -1000 1420 -1000 L1238 -1000 Q1234 -1000 1231 -997 Q1229 -995 1229 -991 L1229 -586 L200 -586 L200 -991 Q200 -995 197 -997 Q195 -1000 192 -1000 L9 -1000 Q5 -1000 2 -997 Q0 -995 0 -991 L0 -8 Q0 -5 2 -2 Q5 0 9 0 L192 0 Q195 0 197 -2 Q200 -5 200 -8 L200 -414 L1229 -414 L1229 -8 Q1229 -5 1231 -2 Q1234 0 1238 0 L1420 0 Q1424 0 1426 -2 Q1429 -5 1429 -8 L1429 -991 " />
<glyph unicode="I" horiz-adv-x="500" d="M200 -991 L200 -991 Q200 -995 197 -997 Q195 -1000 191 -1000 L8 -1000 Q5 -1000 2 -997 Q0 -995 0 -991 L0 -8 Q0 -5 2 -2 Q5 0 8 0 L191 0 Q195 0 197 -2 Q200 -5 200 -8 L200 -991 " />
<glyph unicode="J" horiz-adv-x="1729" d="M1429 -991 L1429 -991 Q1429 -995 1426 -997 Q1424 -1000 1420 -1000 L1238 -1000 Q1234 -1000 1231 -997 Q1229 -995 1229 -991 L1229 -257 Q1229 -221 1204 -196 Q1179 -171 1143 -171 L286 -171 Q251 -171 225 -196 Q200 -221 200 -257 L200 -591 Q200 -595 197 -597 Q195 -600 192 -600 L9 -600 Q5 -600 2 -597 Q0 -595 0 -591 L0 -285 Q0 -167 84 -83 Q168 0 286 0 L1143 0 Q1262 0 1345 -83 Q1429 -167 1429 -285 L1429 -991 " />
<glyph unicode="K" horiz-adv-x="1753" d="M1278 -376 L1278 -376 Q1247 -440 1195 -486 Q1247 -531 1278 -595 L1451 -959 Q1453 -964 1450 -967 Q1448 -971 1444 -971 L1241 -971 Q1236 -971 1233 -966 L1084 -653 Q1065 -615 1030 -593 Q996 -571 955 -571 L200 -571 L200 -991 Q200 -995 197 -997 Q195 -1000 191 -1000 L9 -1000 Q5 -1000 2 -997 Q0 -995 0 -991 L0 -9 Q0 -5 2 -2 Q5 0 9 0 L191 0 Q195 0 197 -2 Q200 -5 200 -9 L200 -400 L955 -400 Q996 -400 1030 -378 Q1065 -356 1084 -319 L1233 -5 Q1236 0 1241 0 L1444 0 Q1448 0 1450 -4 Q1453 -8 1451 -12 L1278 -376 " />
<glyph unicode="L" horiz-adv-x="1728" d="M1428 -163 L1428 -163 Q1428 -166 1425 -168 Q1423 -171 1420 -171 L286 -171 Q250 -171 225 -196 Q200 -222 200 -257 L200 -991 Q200 -995 197 -997 Q195 -1000 191 -1000 L8 -1000 Q5 -1000 2 -997 Q0 -995 0 -991 L0 -286 Q0 -167 83 -83 Q167 0 286 0 L1420 0 Q1423 0 1425 -2 Q1428 -5 1428 -8 L1428 -163 " />
<glyph unicode="M" horiz-adv-x="1786" d="M1486 -991 L1486 -991 Q1486 -995 1483 -997 Q1481 -1000 1477 -1000 L1109 -1000 Q1100 -1000 1090 -999 Q1033 -993 990 -956 Q948 -920 928 -865 L743 -333 L557 -865 Q538 -920 495 -956 Q453 -992 396 -999 Q386 -1000 376 -1000 L8 -1000 Q5 -1000 2 -997 Q0 -995 0 -991 L0 -9 Q0 -5 2 -2 Q5 0 8 0 L191 0 Q195 0 197 -2 Q200 -5 200 -9 L200 -829 L310 -829 Q364 -829 391 -771 L660 -6 Q663 0 668 0 L817 0 Q823 0 825 -6 L1095 -771 Q1121 -829 1176 -829 L1286 -829 L1286 -9 Q1286 -5 1288 -2 Q1291 0 1294 0 L1477 0 Q1481 0 1483 -2 Q1486 -5 1486 -9 L1486 -991 " />
<glyph unicode="N" horiz-adv-x="1728" d="M1228 -991 L1228 -991 Q1228 -995 1230 -997 Q1233 -1000 1237 -1000 L1420 -1000 Q1423 -1000 1425 -997 Q1428 -995 1428 -991 L1428 -8 Q1428 -5 1425 -2 Q1423 0 1420 0 L1048 0 L1046 0 Q931 -3 865 -97 L400 -790 Q371 -828 328 -828 L200 -828 L200 -8 Q200 -5 197 -2 Q195 0 191 0 L8 0 Q5 0 2 -2 Q0 -5 0 -8 L0 -991 Q0 -995 2 -997 Q5 -1000 8 -1000 L380 -1000 L382 -1000 Q497 -996 563 -902 L1028 -210 Q1056 -171 1100 -171 L1228 -171 L1228 -991 " />
<glyph unicode="O" horiz-adv-x="1729" d="M1143 -1000 L1143 -1000 Q1262 -1000 1345 -916 Q1429 -833 1429 -714 L1429 -286 Q1429 -167 1345 -83 Q1262 0 1143 0 L286 0 Q168 0 84 -83 Q0 -167 0 -286 L0 -714 Q0 -833 84 -916 Q168 -1000 286 -1000 L1143 -1000 M1229 -743 L1229 -743 Q1229 -778 1204 -803 Q1179 -829 1143 -829 L286 -829 Q251 -829 225 -803 Q200 -778 200 -743 L200 -257 Q200 -222 225 -196 Q251 -171 286 -171 L1143 -171 Q1179 -171 1204 -196 Q1229 -222 1229 -257 L1229 -743 " />
<glyph unicode="P" horiz-adv-x="1728" d="M0 -992 L0 -992 Q0 -995 2 -997 Q5 -1000 8 -1000 L1143 -1000 Q1261 -1000 1344 -916 Q1428 -833 1428 -715 L1428 -615 Q1428 -496 1344 -412 Q1261 -329 1143 -329 L200 -329 L200 -9 Q200 -5 197 -2 Q195 0 191 0 L8 0 Q5 0 2 -2 Q0 -5 0 -9 L0 -992 M1143 -500 L1143 -500 Q1178 -500 1203 -525 Q1228 -551 1228 -586 L1228 -743 Q1228 -779 1203 -804 Q1178 -829 1143 -829 L200 -829 L200 -500 L1143 -500 " />
<glyph unicode="Q" horiz-adv-x="1728" d="M1428 -286 L1428 -286 Q1428 -210 1392 -147 Q1357 -84 1297 -46 L1301 -36 L1302 -35 Q1302 -34 1303 -33 Q1305 -29 1307 -25 L1422 216 Q1424 220 1421 224 Q1419 228 1414 228 L1212 228 Q1207 228 1204 223 L1113 32 Q1097 2 1062 0 L286 0 Q167 0 83 -84 Q0 -168 0 -286 L0 -714 Q0 -833 83 -916 Q167 -1000 286 -1000 L1142 -1000 Q1261 -1000 1344 -916 Q1428 -833 1428 -714 L1428 -286 M286 -172 L286 -172 L1142 -172 Q1178 -172 1203 -197 Q1228 -222 1228 -257 L1228 -743 Q1228 -778 1203 -803 Q1178 -829 1142 -829 L286 -829 Q250 -829 225 -803 Q200 -778 200 -743 L200 -257 Q200 -222 225 -197 Q250 -172 286 -172 " />
<glyph unicode="R" horiz-adv-x="1728" d="M1428 -614 L1428 -614 Q1428 -527 1382 -457 Q1336 -388 1260 -354 L1264 -346 L1423 -12 Q1424 -8 1422 -4 Q1420 0 1415 0 L1212 0 Q1207 0 1204 -5 L1050 -328 L200 -328 L200 -8 Q200 -5 197 -2 Q195 0 191 0 L8 0 Q5 0 2 -2 Q0 -5 0 -8 L0 -991 Q0 -995 2 -997 Q5 -1000 8 -1000 L1143 -1000 Q1261 -1000 1344 -916 Q1428 -833 1428 -714 L1428 -614 M200 -500 L200 -500 L1143 -500 Q1178 -500 1203 -525 Q1228 -550 1228 -586 L1228 -743 Q1228 -778 1203 -803 Q1178 -828 1143 -828 L200 -828 L200 -500 " />
<glyph unicode="S" horiz-adv-x="1728" d="M200 -743 L200 -743 Q200 -779 225 -804 Q250 -829 285 -829 L1363 -829 Q1366 -829 1368 -831 Q1371 -834 1371 -837 L1371 -992 Q1371 -995 1368 -997 Q1366 -1000 1363 -1000 L285 -1000 Q167 -1000 83 -916 Q0 -833 0 -715 L0 -700 Q0 -582 83 -498 Q167 -415 285 -415 L1143 -415 Q1178 -415 1203 -389 Q1228 -364 1228 -329 L1228 -257 Q1228 -222 1203 -197 Q1178 -172 1143 -172 L65 -172 Q62 -172 59 -169 Q57 -167 57 -163 L57 -9 Q57 -5 59 -2 Q62 0 65 0 L1143 0 Q1261 0 1344 -84 Q1428 -168 1428 -286 L1428 -300 Q1428 -419 1344 -502 Q1261 -586 1143 -586 L285 -586 Q250 -586 225 -611 Q200 -636 200 -672 L200 -743 " />
<glyph unicode="T" horiz-adv-x="1728" d="M0 -991 L0 -991 Q0 -995 2 -997 Q5 -1000 8 -1000 L1420 -1000 Q1423 -1000 1425 -997 Q1428 -995 1428 -991 L1428 -837 Q1428 -834 1425 -831 Q1423 -829 1420 -829 L814 -829 L814 -9 Q814 -5 811 -2 Q809 0 806 0 L623 0 Q619 0 616 -2 Q614 -5 614 -9 L614 -829 L8 -829 Q5 -829 2 -831 Q0 -834 0 -837 L0 -991 " />
<glyph unicode="U" horiz-adv-x="1729" d="M1429 -991 L1429 -991 Q1429 -995 1426 -997 Q1424 -1000 1420 -1000 L1238 -1000 Q1234 -1000 1231 -997 Q1229 -995 1229 -991 L1229 -257 Q1229 -221 1204 -196 Q1179 -171 1143 -171 L286 -171 Q251 -171 225 -196 Q200 -221 200 -257 L200 -991 Q200 -995 197 -997 Q195 -1000 192 -1000 L9 -1000 Q5 -1000 2 -997 Q0 -995 0 -991 L0 -285 Q0 -167 84 -83 Q168 0 286 0 L1143 0 Q1262 0 1345 -83 Q1429 -167 1429 -285 L1429 -991 " />
<glyph unicode="V" horiz-adv-x="1803" d="M589 -75 L589 -75 Q510 0 407 0 L8 0 Q5 0 2 -2 Q0 -5 0 -8 L0 -991 Q0 -995 2 -997 Q5 -1000 8 -1000 L191 -1000 Q195 -1000 197 -997 Q200 -995 200 -991 L200 -171 L366 -171 Q400 -171 426 -196 L1232 -997 Q1235 -1000 1238 -1000 L1493 -1000 Q1499 -1000 1501 -995 Q1503 -990 1499 -985 L589 -75 " />
<glyph unicode="W" horiz-adv-x="1786" d="M1486 -992 L1486 -992 Q1486 -995 1483 -997 Q1481 -1000 1477 -1000 L1294 -1000 Q1291 -1000 1288 -997 Q1286 -995 1286 -992 L1286 -172 L1111 -172 Q1065 -172 1037 -215 L843 -554 L843 -992 Q843 -995 840 -997 Q838 -1000 834 -1000 L652 -1000 Q648 -1000 645 -997 Q643 -995 643 -992 L643 -554 L449 -215 Q421 -172 375 -172 L200 -172 L200 -992 Q200 -995 197 -997 Q195 -1000 192 -1000 L9 -1000 Q5 -1000 2 -997 Q0 -995 0 -992 L0 -9 Q0 -5 2 -2 Q5 0 9 0 L408 0 Q477 0 536 -34 Q596 -69 631 -130 L743 -326 L855 -130 Q890 -69 949 -34 Q1009 0 1078 0 L1477 0 Q1481 0 1483 -2 Q1486 -5 1486 -9 L1486 -992 " />
<glyph unicode="X" horiz-adv-x="1728" d="M1141 -829 L1141 -829 Q1102 -829 1074 -797 L833 -500 L1074 -203 Q1102 -172 1141 -172 L1420 -172 Q1423 -172 1425 -169 Q1428 -167 1428 -163 L1428 -9 Q1428 -5 1425 -2 Q1423 0 1420 0 L1124 0 Q1008 0 924 -95 L714 -354 L504 -95 Q420 0 304 0 L8 0 Q5 0 2 -2 Q0 -5 0 -9 L0 -163 Q0 -167 2 -169 Q5 -172 8 -172 L287 -172 Q326 -172 354 -203 L595 -500 L354 -797 Q326 -829 288 -829 L8 -829 Q5 -829 2 -831 Q0 -834 0 -837 L0 -992 Q0 -995 2 -997 Q5 -1000 8 -1000 L304 -1000 Q420 -1000 504 -905 L714 -646 L925 -905 Q1008 -1000 1124 -1000 L1420 -1000 Q1423 -1000 1425 -997 Q1428 -995 1428 -992 L1428 -837 Q1428 -834 1425 -831 Q1423 -829 1420 -829 L1141 -829 " />
<glyph unicode="Y" horiz-adv-x="1752" d="M1452 -992 L1452 -992 Q1452 -995 1449 -997 Q1447 -1000 1443 -1000 L1260 -1000 Q1257 -1000 1254 -997 Q1252 -995 1252 -992 L1252 -543 L489 -543 Q440 -543 412 -592 L220 -995 Q217 -1000 212 -1000 L9 -1000 Q5 -1000 2 -996 Q0 -993 1 -988 L239 -490 Q272 -422 334 -382 Q397 -343 471 -343 L1252 -343 L1252 -9 Q1252 -5 1254 -2 Q1257 0 1260 0 L1443 0 Q1447 0 1449 -2 Q1452 -5 1452 -9 L1452 -992 " />
<glyph unicode="Z" horiz-adv-x="1700" d="M1400 -992 L1400 -992 Q1400 -995 1397 -997 Q1395 -1000 1391 -1000 L37 -1000 Q34 -1000 31 -997 Q29 -995 29 -992 L29 -837 Q29 -834 31 -831 Q34 -829 37 -829 L1200 -829 L1200 -772 Q1200 -741 1181 -718 Q1162 -695 1132 -688 L203 -489 Q113 -468 56 -398 Q0 -328 0 -237 L0 -9 Q0 -5 2 -2 Q5 0 9 0 L1363 0 Q1366 0 1368 -2 Q1371 -5 1371 -9 L1371 -163 Q1371 -167 1368 -169 Q1366 -172 1363 -172 L200 -172 L200 -229 Q200 -259 219 -282 Q238 -305 268 -312 L1197 -511 Q1287 -532 1343 -602 Q1400 -672 1400 -763 L1400 -992 " />
<glyph unicode="[" horiz-adv-x="671" d="M200 -1 L200 -1 L200 -999 L363 -999 Q366 -999 368 -1001 Q371 -1004 371 -1008 L371 -1162 Q371 -1165 368 -1167 Q366 -1170 363 -1170 L9 -1170 Q5 -1170 2 -1167 Q0 -1165 0 -1162 L0 161 Q0 165 2 167 Q5 170 9 170 L363 170 Q366 170 368 167 Q371 165 371 161 L371 7 Q371 4 368 1 Q366 -1 363 -1 L200 -1 " />
<glyph unicode="\" horiz-adv-x="922" d="M2 -988 L423 -5 Q426 0 431 0 L612 0 Q617 0 619 -4 Q622 -8 620 -12 L199 -995 Q196 -1000 191 -1000 L9 -1000 Q5 -1000 2 -996 Q0 -993 2 -988 L2 -988 " />
<glyph unicode="]" horiz-adv-x="671" d="M172 -1 L9 -1 Q5 -1 2 1 Q0 4 0 7 L0 161 Q0 165 2 167 Q5 170 9 170 L363 170 Q366 170 368 167 Q371 165 371 161 L371 -1162 Q371 -1165 368 -1167 Q366 -1170 363 -1170 L9 -1170 Q5 -1170 2 -1167 Q0 -1165 0 -1162 L0 -1008 Q0 -1004 2 -1001 Q5 -999 9 -999 L172 -999 L172 -1 L172 -1 " />
<glyph unicode="^" horiz-adv-x="978" d="M676 -498 L676 -498 Q678 -494 675 -490 Q673 -486 668 -486 L516 -486 Q511 -486 508 -491 L339 -829 L170 -491 Q167 -486 162 -486 L10 -486 Q5 -486 2 -490 Q0 -494 2 -498 L251 -996 Q254 -1000 259 -1000 L419 -1000 Q424 -1000 427 -996 L676 -498 " />
<glyph unicode="_" horiz-adv-x="1728" d="M1422 271 L1422 271 Q1425 271 1426 268 Q1428 266 1428 263 L1428 108 Q1428 105 1426 102 Q1425 100 1422 100 L6 100 Q3 100 1 102 Q0 105 0 108 L0 263 Q0 266 1 268 Q3 271 6 271 L1422 271 " />
<glyph unicode="`" horiz-adv-x="853" d="M277 -1496 L277 -1496 Q275 -1500 271 -1500 L10 -1500 Q4 -1500 2 -1494 Q0 -1489 4 -1485 L358 -1131 Q361 -1128 364 -1128 L543 -1128 Q549 -1128 551 -1132 Q553 -1137 550 -1142 L277 -1496 " />
<glyph unicode="a" horiz-adv-x="1729" d="M0 -715 L0 -715 Q0 -833 83 -916 Q167 -1000 286 -1000 L1143 -1000 Q1261 -1000 1345 -916 Q1429 -833 1429 -715 L1429 -9 Q1429 -5 1426 -2 Q1424 0 1420 0 L1237 0 Q1234 0 1231 -2 Q1229 -5 1229 -9 L1229 -329 L200 -329 L200 -9 Q200 -5 197 -2 Q195 0 192 0 L9 0 Q5 0 2 -2 Q0 -5 0 -9 L0 -715 M1229 -500 L1229 -500 L1229 -743 Q1229 -779 1203 -804 Q1178 -829 1143 -829 L286 -829 Q250 -829 225 -804 Q200 -779 200 -743 L200 -500 L1229 -500 " />
<glyph unicode="b" horiz-adv-x="1729" d="M1429 -714 L1429 -714 L1429 -700 Q1429 -583 1347 -500 Q1429 -417 1429 -300 L1429 -285 Q1429 -167 1345 -83 Q1261 0 1143 0 L9 0 Q5 0 2 -2 Q0 -5 0 -8 L0 -991 Q0 -995 2 -997 Q5 -1000 9 -1000 L1143 -1000 Q1261 -1000 1345 -916 Q1429 -832 1429 -714 M200 -828 L200 -828 L200 -585 L1143 -585 Q1178 -585 1203 -610 Q1229 -636 1229 -671 L1229 -743 Q1229 -778 1203 -803 Q1178 -828 1143 -828 L200 -828 M1229 -257 L1229 -257 L1229 -328 Q1229 -364 1203 -389 Q1178 -414 1143 -414 L200 -414 L200 -171 L1143 -171 Q1178 -171 1203 -196 Q1229 -221 1229 -257 " />
<glyph unicode="c" horiz-adv-x="1729" d="M286 -171 L286 -171 Q250 -171 225 -196 Q200 -222 200 -257 L200 -743 Q200 -778 225 -803 Q250 -829 286 -829 L1420 -829 Q1424 -829 1426 -831 Q1429 -834 1429 -837 L1429 -991 Q1429 -995 1426 -997 Q1424 -1000 1420 -1000 L286 -1000 Q167 -1000 83 -916 Q0 -833 0 -714 L0 -286 Q0 -167 83 -83 Q167 0 286 0 L1420 0 Q1424 0 1426 -2 Q1429 -5 1429 -9 L1429 -163 Q1429 -166 1426 -168 Q1424 -171 1420 -171 L286 -171 " />
<glyph unicode="d" horiz-adv-x="1728" d="M1142 -1000 L1142 -1000 Q1261 -1000 1344 -916 Q1428 -833 1428 -714 L1428 -286 Q1428 -167 1344 -83 Q1261 0 1142 0 L8 0 Q5 0 2 -2 Q0 -5 0 -9 L0 -991 Q0 -995 2 -997 Q5 -1000 8 -1000 L1142 -1000 M1228 -743 L1228 -743 Q1228 -778 1203 -803 Q1178 -829 1142 -829 L200 -829 L200 -171 L1142 -171 Q1178 -171 1203 -196 Q1228 -222 1228 -257 L1228 -743 " />
<glyph unicode="e" horiz-adv-x="1729" d="M200 -743 L200 -743 Q200 -778 225 -803 Q250 -829 286 -829 L1420 -829 Q1424 -829 1426 -831 Q1429 -834 1429 -837 L1429 -991 Q1429 -995 1426 -997 Q1424 -1000 1420 -1000 L286 -1000 Q167 -1000 83 -916 Q0 -833 0 -714 L0 -286 Q0 -167 83 -83 Q167 0 286 0 L1420 0 Q1424 0 1426 -2 Q1429 -5 1429 -9 L1429 -163 Q1429 -166 1426 -168 Q1424 -171 1420 -171 L286 -171 Q250 -171 225 -196 Q200 -222 200 -257 L200 -414 L1277 -414 Q1281 -414 1283 -416 Q1286 -419 1286 -423 L1286 -577 Q1286 -581 1283 -583 Q1281 -586 1277 -586 L200 -586 L200 -743 " />
<glyph unicode="f" horiz-adv-x="1729" d="M200 -743 L200 -743 Q200 -778 225 -803 Q251 -829 286 -829 L1420 -829 Q1424 -829 1426 -831 Q1429 -834 1429 -837 L1429 -991 Q1429 -995 1426 -997 Q1424 -1000 1420 -1000 L258 -1000 Q151 -1000 75 -924 Q0 -849 0 -743 L0 -9 Q0 -5 2 -2 Q5 0 9 0 L192 0 Q195 0 197 -2 Q200 -5 200 -9 L200 -329 L1278 -329 Q1281 -329 1283 -331 Q1286 -334 1286 -337 L1286 -491 Q1286 -495 1283 -497 Q1281 -500 1278 -500 L200 -500 L200 -743 " />
<glyph unicode="g" horiz-adv-x="1729" d="M286 -171 L286 -171 Q250 -171 225 -196 Q200 -222 200 -257 L200 -743 Q200 -778 225 -803 Q250 -829 286 -829 L1420 -829 Q1424 -829 1426 -831 Q1429 -834 1429 -837 L1429 -991 Q1429 -995 1426 -997 Q1424 -1000 1420 -1000 L286 -1000 Q167 -1000 83 -916 Q0 -833 0 -714 L0 -286 Q0 -167 83 -83 Q167 0 286 0 L1171 0 Q1278 0 1353 -75 Q1429 -151 1429 -257 L1429 -491 Q1429 -495 1426 -497 Q1424 -500 1420 -500 L1237 -500 Q1234 -500 1231 -497 Q1229 -495 1229 -491 L1229 -257 Q1229 -222 1203 -196 Q1178 -171 1143 -171 L286 -171 " />
<glyph unicode="h" horiz-adv-x="1729" d="M1429 -991 L1429 -991 Q1429 -995 1426 -997 Q1424 -1000 1420 -1000 L1238 -1000 Q1234 -1000 1231 -997 Q1229 -995 1229 -991 L1229 -586 L200 -586 L200 -991 Q200 -995 197 -997 Q195 -1000 192 -1000 L9 -1000 Q5 -1000 2 -997 Q0 -995 0 -991 L0 -8 Q0 -5 2 -2 Q5 0 9 0 L192 0 Q195 0 197 -2 Q200 -5 200 -8 L200 -414 L1229 -414 L1229 -8 Q1229 -5 1231 -2 Q1234 0 1238 0 L1420 0 Q1424 0 1426 -2 Q1429 -5 1429 -8 L1429 -991 " />
<glyph unicode="i" horiz-adv-x="500" d="M200 -991 L200 -991 Q200 -995 197 -997 Q195 -1000 191 -1000 L8 -1000 Q5 -1000 2 -997 Q0 -995 0 -991 L0 -8 Q0 -5 2 -2 Q5 0 8 0 L191 0 Q195 0 197 -2 Q200 -5 200 -8 L200 -991 " />
<glyph unicode="j" horiz-adv-x="1729" d="M1429 -991 L1429 -991 Q1429 -995 1426 -997 Q1424 -1000 1420 -1000 L1238 -1000 Q1234 -1000 1231 -997 Q1229 -995 1229 -991 L1229 -257 Q1229 -221 1204 -196 Q1179 -171 1143 -171 L286 -171 Q251 -171 225 -196 Q200 -221 200 -257 L200 -591 Q200 -595 197 -597 Q195 -600 192 -600 L9 -600 Q5 -600 2 -597 Q0 -595 0 -591 L0 -285 Q0 -167 84 -83 Q168 0 286 0 L1143 0 Q1262 0 1345 -83 Q1429 -167 1429 -285 L1429 -991 " />
<glyph unicode="k" horiz-adv-x="1753" d="M1278 -376 L1278 -376 Q1247 -440 1195 -486 Q1247 -531 1278 -595 L1451 -959 Q1453 -964 1450 -967 Q1448 -971 1444 -971 L1241 -971 Q1236 -971 1233 -966 L1084 -653 Q1065 -615 1030 -593 Q996 -571 955 -571 L200 -571 L200 -991 Q200 -995 197 -997 Q195 -1000 191 -1000 L9 -1000 Q5 -1000 2 -997 Q0 -995 0 -991 L0 -9 Q0 -5 2 -2 Q5 0 9 0 L191 0 Q195 0 197 -2 Q200 -5 200 -9 L200 -400 L955 -400 Q996 -400 1030 -378 Q1065 -356 1084 -319 L1233 -5 Q1236 0 1241 0 L1444 0 Q1448 0 1450 -4 Q1453 -8 1451 -12 L1278 -376 " />
<glyph unicode="l" horiz-adv-x="1728" d="M1428 -163 L1428 -163 Q1428 -166 1425 -168 Q1423 -171 1420 -171 L286 -171 Q250 -171 225 -196 Q200 -222 200 -257 L200 -991 Q200 -995 197 -997 Q195 -1000 191 -1000 L8 -1000 Q5 -1000 2 -997 Q0 -995 0 -991 L0 -286 Q0 -167 83 -83 Q167 0 286 0 L1420 0 Q1423 0 1425 -2 Q1428 -5 1428 -8 L1428 -163 " />
<glyph unicode="m" horiz-adv-x="1786" d="M1200 -1000 L1200 -1000 Q1319 -1000 1402 -916 Q1486 -832 1486 -714 L1486 -8 Q1486 -5 1483 -2 Q1481 0 1477 0 L1294 0 Q1291 0 1288 -2 Q1286 -5 1286 -8 L1286 -743 Q1286 -778 1261 -803 Q1236 -828 1200 -828 L843 -828 L843 -8 Q843 -5 840 -2 Q838 0 834 0 L652 0 Q648 0 645 -2 Q643 -5 643 -8 L643 -828 L286 -828 Q250 -828 225 -803 Q200 -778 200 -743 L200 -8 Q200 -5 197 -2 Q195 0 192 0 L9 0 Q5 0 2 -2 Q0 -5 0 -8 L0 -714 Q0 -832 84 -916 Q168 -1000 286 -1000 L1200 -1000 " />
<glyph unicode="n" horiz-adv-x="1729" d="M0 -8 L0 -8 Q0 -5 2 -2 Q5 0 9 0 L192 0 Q195 0 197 -2 Q200 -5 200 -8 L200 -742 Q200 -778 225 -803 Q251 -828 286 -828 L1143 -828 Q1179 -828 1204 -803 Q1229 -778 1229 -742 L1229 -8 Q1229 -5 1231 -2 Q1234 0 1238 0 L1420 0 Q1424 0 1426 -2 Q1429 -5 1429 -8 L1429 -714 Q1429 -832 1345 -916 Q1262 -1000 1143 -1000 L286 -1000 Q168 -1000 84 -916 Q0 -832 0 -714 L0 -8 " />
<glyph unicode="o" horiz-adv-x="1729" d="M1143 -1000 L1143 -1000 Q1262 -1000 1345 -916 Q1429 -833 1429 -714 L1429 -286 Q1429 -167 1345 -83 Q1262 0 1143 0 L286 0 Q168 0 84 -83 Q0 -167 0 -286 L0 -714 Q0 -833 84 -916 Q168 -1000 286 -1000 L1143 -1000 M1229 -743 L1229 -743 Q1229 -778 1204 -803 Q1179 -829 1143 -829 L286 -829 Q251 -829 225 -803 Q200 -778 200 -743 L200 -257 Q200 -222 225 -196 Q251 -171 286 -171 L1143 -171 Q1179 -171 1204 -196 Q1229 -222 1229 -257 L1229 -743 " />
<glyph unicode="p" horiz-adv-x="1728" d="M0 -992 L0 -992 Q0 -995 2 -997 Q5 -1000 8 -1000 L1143 -1000 Q1261 -1000 1344 -916 Q1428 -833 1428 -715 L1428 -615 Q1428 -496 1344 -412 Q1261 -329 1143 -329 L200 -329 L200 -9 Q200 -5 197 -2 Q195 0 191 0 L8 0 Q5 0 2 -2 Q0 -5 0 -9 L0 -992 M1143 -500 L1143 -500 Q1178 -500 1203 -525 Q1228 -551 1228 -586 L1228 -743 Q1228 -779 1203 -804 Q1178 -829 1143 -829 L200 -829 L200 -500 L1143 -500 " />
<glyph unicode="q" horiz-adv-x="1728" d="M1428 -286 L1428 -286 Q1428 -210 1392 -147 Q1357 -84 1297 -46 L1301 -36 L1302 -35 Q1302 -34 1303 -33 Q1305 -29 1307 -25 L1422 216 Q1424 220 1421 224 Q1419 228 1414 228 L1212 228 Q1207 228 1204 223 L1113 32 Q1097 2 1062 0 L286 0 Q167 0 83 -84 Q0 -168 0 -286 L0 -714 Q0 -833 83 -916 Q167 -1000 286 -1000 L1142 -1000 Q1261 -1000 1344 -916 Q1428 -833 1428 -714 L1428 -286 M286 -172 L286 -172 L1142 -172 Q1178 -172 1203 -197 Q1228 -222 1228 -257 L1228 -743 Q1228 -778 1203 -803 Q1178 -829 1142 -829 L286 -829 Q250 -829 225 -803 Q200 -778 200 -743 L200 -257 Q200 -222 225 -197 Q250 -172 286 -172 " />
<glyph unicode="r" horiz-adv-x="1728" d="M1428 -614 L1428 -614 Q1428 -527 1382 -457 Q1336 -388 1260 -354 L1264 -346 L1423 -12 Q1424 -8 1422 -4 Q1420 0 1415 0 L1212 0 Q1207 0 1204 -5 L1050 -328 L200 -328 L200 -8 Q200 -5 197 -2 Q195 0 191 0 L8 0 Q5 0 2 -2 Q0 -5 0 -8 L0 -991 Q0 -995 2 -997 Q5 -1000 8 -1000 L1143 -1000 Q1261 -1000 1344 -916 Q1428 -833 1428 -714 L1428 -614 M200 -500 L200 -500 L1143 -500 Q1178 -500 1203 -525 Q1228 -550 1228 -586 L1228 -743 Q1228 -778 1203 -803 Q1178 -828 1143 -828 L200 -828 L200 -500 " />
<glyph unicode="s" horiz-adv-x="1728" d="M200 -743 L200 -743 Q200 -779 225 -804 Q250 -829 285 -829 L1363 -829 Q1366 -829 1368 -831 Q1371 -834 1371 -837 L1371 -992 Q1371 -995 1368 -997 Q1366 -1000 1363 -1000 L285 -1000 Q167 -1000 83 -916 Q0 -833 0 -715 L0 -700 Q0 -582 83 -498 Q167 -415 285 -415 L1143 -415 Q1178 -415 1203 -389 Q1228 -364 1228 -329 L1228 -257 Q1228 -222 1203 -197 Q1178 -172 1143 -172 L65 -172 Q62 -172 59 -169 Q57 -167 57 -163 L57 -9 Q57 -5 59 -2 Q62 0 65 0 L1143 0 Q1261 0 1344 -84 Q1428 -168 1428 -286 L1428 -300 Q1428 -419 1344 -502 Q1261 -586 1143 -586 L285 -586 Q250 -586 225 -611 Q200 -636 200 -672 L200 -743 " />
<glyph unicode="t" horiz-adv-x="1728" d="M0 -991 L0 -991 Q0 -995 2 -997 Q5 -1000 8 -1000 L1420 -1000 Q1423 -1000 1425 -997 Q1428 -995 1428 -991 L1428 -837 Q1428 -834 1425 -831 Q1423 -829 1420 -829 L814 -829 L814 -9 Q814 -5 811 -2 Q809 0 806 0 L623 0 Q619 0 616 -2 Q614 -5 614 -9 L614 -829 L8 -829 Q5 -829 2 -831 Q0 -834 0 -837 L0 -991 " />
<glyph unicode="u" horiz-adv-x="1729" d="M1429 -991 L1429 -991 Q1429 -995 1426 -997 Q1424 -1000 1420 -1000 L1238 -1000 Q1234 -1000 1231 -997 Q1229 -995 1229 -991 L1229 -257 Q1229 -221 1204 -196 Q1179 -171 1143 -171 L286 -171 Q251 -171 225 -196 Q200 -221 200 -257 L200 -991 Q200 -995 197 -997 Q195 -1000 192 -1000 L9 -1000 Q5 -1000 2 -997 Q0 -995 0 -991 L0 -285 Q0 -167 84 -83 Q168 0 286 0 L1143 0 Q1262 0 1345 -83 Q1429 -167 1429 -285 L1429 -991 " />
<glyph unicode="v" horiz-adv-x="1731" d="M1230 -991 L1230 -991 Q1230 -994 1232 -997 Q1235 -1000 1239 -1000 L1422 -1000 Q1426 -1000 1428 -997 Q1431 -994 1431 -991 L1431 -524 Q1431 -420 1336 -354 L806 -25 Q715 26 625 -25 L94 -354 Q0 -420 0 -524 L0 -991 Q0 -994 2 -997 Q5 -1000 8 -1000 L191 -1000 Q195 -1000 197 -997 Q200 -994 200 -991 L200 -572 Q200 -527 241 -499 L685 -223 Q715 -206 745 -223 L1190 -499 Q1230 -527 1230 -572 L1230 -991 " />
<glyph unicode="w" horiz-adv-x="1786" d="M286 0 L286 0 Q167 0 83 -84 Q0 -168 0 -286 L0 -992 Q0 -995 2 -997 Q5 -1000 8 -1000 L191 -1000 Q195 -1000 197 -997 Q200 -995 200 -992 L200 -258 Q200 -222 225 -197 Q250 -172 286 -172 L643 -172 L643 -992 Q643 -995 645 -997 Q648 -1000 651 -1000 L834 -1000 Q838 -1000 840 -997 Q843 -995 843 -992 L843 -172 L1200 -172 Q1235 -172 1260 -197 Q1286 -222 1286 -258 L1286 -992 Q1286 -995 1288 -997 Q1291 -1000 1294 -1000 L1477 -1000 Q1480 -1000 1483 -997 Q1486 -995 1486 -992 L1486 -286 Q1486 -168 1402 -84 Q1318 0 1200 0 L286 0 " />
<glyph unicode="x" horiz-adv-x="1728" d="M1141 -829 L1141 -829 Q1102 -829 1074 -797 L833 -500 L1074 -203 Q1102 -172 1141 -172 L1420 -172 Q1423 -172 1425 -169 Q1428 -167 1428 -163 L1428 -9 Q1428 -5 1425 -2 Q1423 0 1420 0 L1124 0 Q1008 0 924 -95 L714 -354 L504 -95 Q420 0 304 0 L8 0 Q5 0 2 -2 Q0 -5 0 -9 L0 -163 Q0 -167 2 -169 Q5 -172 8 -172 L287 -172 Q326 -172 354 -203 L595 -500 L354 -797 Q326 -829 288 -829 L8 -829 Q5 -829 2 -831 Q0 -834 0 -837 L0 -992 Q0 -995 2 -997 Q5 -1000 8 -1000 L304 -1000 Q420 -1000 504 -905 L714 -646 L925 -905 Q1008 -1000 1124 -1000 L1420 -1000 Q1423 -1000 1425 -997 Q1428 -995 1428 -992 L1428 -837 Q1428 -834 1425 -831 Q1423 -829 1420 -829 L1141 -829 " />
<glyph unicode="y" horiz-adv-x="1786" d="M1286 -992 L1286 -992 Q1286 -995 1288 -997 Q1291 -1000 1295 -1000 L1477 -1000 Q1481 -1000 1483 -997 Q1486 -995 1486 -992 L1486 -712 Q1486 -651 1453 -601 Q1420 -552 1364 -528 L843 -307 L843 -9 Q843 -5 840 -2 Q838 0 835 0 L652 0 Q648 0 645 -2 Q643 -5 643 -9 L643 -307 L122 -528 Q66 -552 33 -602 Q0 -652 0 -712 L0 -992 Q0 -995 2 -997 Q5 -1000 9 -1000 L192 -1000 Q195 -1000 197 -997 Q200 -995 200 -992 L200 -751 Q200 -699 253 -672 L743 -466 L1234 -672 Q1286 -699 1286 -751 L1286 -992 " />
<glyph unicode="z" horiz-adv-x="1700" d="M1400 -992 L1400 -992 Q1400 -995 1397 -997 Q1395 -1000 1391 -1000 L37 -1000 Q34 -1000 31 -997 Q29 -995 29 -992 L29 -837 Q29 -834 31 -831 Q34 -829 37 -829 L1200 -829 L1200 -772 Q1200 -741 1181 -718 Q1162 -695 1132 -688 L203 -489 Q113 -468 56 -398 Q0 -328 0 -237 L0 -9 Q0 -5 2 -2 Q5 0 9 0 L1363 0 Q1366 0 1368 -2 Q1371 -5 1371 -9 L1371 -163 Q1371 -167 1368 -169 Q1366 -172 1363 -172 L200 -172 L200 -229 Q200 -259 219 -282 Q238 -305 268 -312 L1197 -511 Q1287 -532 1343 -602 Q1400 -672 1400 -763 L1400 -992 " />
<glyph unicode="{" horiz-adv-x="842" d="M371 -913 L371 -913 L371 -671 Q371 -572 305 -500 Q371 -428 371 -329 L371 -87 Q371 -51 396 -26 Q421 -1 456 -1 L533 -1 Q537 -1 539 1 Q542 4 542 8 L542 162 Q542 165 539 167 Q537 170 533 170 L428 170 Q322 170 246 95 Q171 20 171 -87 L171 -414 L9 -414 Q5 -414 2 -416 Q0 -419 0 -423 L0 -577 Q0 -580 2 -582 Q5 -585 9 -585 L171 -585 L171 -913 Q171 -1020 246 -1095 Q322 -1170 428 -1170 L533 -1170 Q537 -1170 539 -1167 Q542 -1165 542 -1161 L542 -1007 Q542 -1004 539 -1001 Q537 -999 533 -999 L456 -999 Q421 -999 396 -974 Q371 -949 371 -913 " />
<glyph unicode="|" horiz-adv-x="499" d="M199 -1202 L199 -1202 Q199 -1205 196 -1207 Q194 -1210 190 -1210 L9 -1210 Q5 -1210 2 -1207 Q0 -1205 0 -1202 L0 201 Q0 205 2 207 Q5 210 9 210 L190 210 Q194 210 196 207 Q199 205 199 201 L199 -1202 " />
<glyph unicode="}" horiz-adv-x="842" d="M171 -913 Q171 -949 146 -974 Q121 -999 86 -999 L9 -999 Q5 -999 2 -1001 Q0 -1004 0 -1007 L0 -1161 Q0 -1165 2 -1167 Q5 -1170 9 -1170 L114 -1170 Q221 -1170 296 -1095 Q371 -1020 371 -913 L371 -585 L533 -585 Q537 -585 539 -582 Q542 -580 542 -577 L542 -423 Q542 -419 539 -416 Q537 -414 533 -414 L371 -414 L371 -87 Q371 20 296 95 Q221 170 114 170 L9 170 Q5 170 2 167 Q0 165 0 162 L0 8 Q0 4 2 1 Q5 -1 9 -1 L86 -1 Q121 -1 146 -26 Q171 -51 171 -87 L171 -329 Q171 -428 237 -500 Q171 -572 171 -671 L171 -913 L171 -913 " />
<glyph unicode="~" horiz-adv-x="1157" d="M685 -661 L685 -661 Q685 -665 687 -667 Q690 -670 694 -670 L848 -670 Q852 -670 854 -667 Q857 -665 857 -661 L857 -580 Q857 -485 785 -426 Q713 -367 616 -384 L240 -462 Q212 -467 191 -450 Q171 -434 171 -406 L171 -349 Q171 -346 168 -343 Q166 -341 163 -341 L8 -341 Q5 -341 2 -343 Q0 -346 0 -349 L0 -431 Q0 -526 72 -584 Q144 -643 241 -627 L617 -548 Q644 -543 664 -560 Q685 -577 685 -604 L685 -661 " />
<glyph unicode="&#xa0;" horiz-adv-x="1000" d="" />
<glyph unicode="&#xa1;" horiz-adv-x="500" d="M0 491 L0 491 Q0 495 2 497 Q5 500 9 500 L192 500 Q195 500 197 497 Q200 495 200 491 L200 -178 Q200 -181 197 -183 Q195 -186 192 -186 L9 -186 Q5 -186 2 -183 Q0 -181 0 -178 L0 491 M2 -500 L2 -500 Q1 -500 0 -500 Q0 -500 0 -499 L0 -330 Q0 -330 0 -329 Q1 -329 2 -329 L199 -329 Q200 -329 200 -329 Q200 -330 200 -330 L200 -499 Q200 -500 200 -500 Q200 -500 199 -500 L2 -500 " />
<glyph unicode="&#xa2;" horiz-adv-x="1726" d="M1426 -664 L1426 -664 Q1426 -660 1423 -657 Q1421 -655 1417 -655 L1235 -655 Q1231 -655 1228 -657 Q1226 -660 1226 -664 L1226 -741 Q1226 -776 1201 -801 Q1176 -826 1141 -826 L813 -826 L813 -170 L1141 -170 Q1176 -170 1201 -195 Q1226 -221 1226 -256 L1226 -333 Q1226 -336 1228 -339 Q1231 -342 1235 -342 L1417 -342 Q1421 -342 1423 -339 Q1426 -336 1426 -333 L1426 -256 Q1426 -150 1351 -74 Q1276 1 1169 1 L813 1 L813 163 Q813 167 810 169 Q808 172 804 172 L622 172 Q618 172 615 169 Q613 167 613 163 L613 1 L277 1 Q162 1 81 -80 Q0 -161 0 -276 L0 -721 Q0 -835 81 -916 Q162 -997 277 -997 L613 -997 L613 -1160 Q613 -1163 615 -1165 Q618 -1168 622 -1168 L804 -1168 Q808 -1168 810 -1165 Q813 -1163 813 -1160 L813 -997 L1169 -997 Q1276 -997 1351 -922 Q1426 -847 1426 -741 L1426 -664 M613 -170 L613 -170 L613 -826 L277 -826 Q245 -826 222 -803 Q200 -781 200 -749 L200 -247 Q200 -216 222 -193 Q245 -170 277 -170 L613 -170 " />
<glyph unicode="&#xa3;" horiz-adv-x="1729" d="M486 -828 L486 -828 Q450 -828 425 -803 Q400 -778 400 -743 L400 -585 L849 -585 Q852 -585 854 -582 Q857 -580 857 -577 L857 -423 Q857 -419 854 -416 Q852 -414 849 -414 L400 -414 L400 -171 L1420 -171 Q1424 -171 1426 -168 Q1429 -166 1429 -163 L1429 -8 Q1429 -5 1426 -2 Q1424 0 1420 0 L9 0 Q5 0 2 -2 Q0 -5 0 -8 L0 -163 Q0 -166 2 -168 Q5 -171 9 -171 L114 -171 Q150 -171 175 -196 Q200 -221 200 -257 L200 -414 L9 -414 Q5 -414 2 -416 Q0 -419 0 -423 L0 -577 Q0 -580 2 -582 Q5 -585 9 -585 L200 -585 L200 -743 Q200 -849 275 -924 Q351 -1000 457 -1000 L1277 -1000 Q1281 -1000 1283 -997 Q1286 -995 1286 -991 L1286 -837 Q1286 -833 1283 -830 Q1281 -828 1277 -828 L486 -828 " />
<glyph unicode="&#xa4;" horiz-adv-x="1028" d="M650 -507 L650 -507 Q650 -435 617 -375 L728 -264 L607 -143 L496 -253 Q436 -221 364 -221 Q293 -221 232 -253 L122 -143 L0 -264 L111 -375 Q78 -435 78 -507 Q78 -578 111 -639 L0 -749 L122 -870 L232 -760 Q293 -792 364 -792 Q436 -792 496 -760 L607 -870 L728 -749 L618 -639 Q650 -578 650 -507 M384 -365 L384 -365 Q432 -373 465 -406 Q498 -439 505 -487 Q507 -496 507 -507 Q507 -517 505 -527 Q498 -574 465 -607 Q432 -640 384 -648 Q374 -649 364 -649 Q354 -649 344 -648 Q296 -640 263 -607 Q230 -574 223 -527 Q221 -517 221 -507 Q221 -496 223 -487 Q230 -439 263 -406 Q296 -373 344 -365 Q354 -364 364 -364 Q374 -364 384 -365 " />
<glyph unicode="&#xa5;" horiz-adv-x="1729" d="M1229 -992 L1229 -992 Q1229 -995 1231 -997 Q1234 -1000 1237 -1000 L1420 -1000 Q1424 -1000 1426 -997 Q1429 -995 1429 -992 L1429 -709 Q1429 -650 1397 -601 Q1365 -552 1310 -526 L879 -335 L1280 -335 Q1282 -335 1284 -332 Q1286 -330 1286 -327 L1286 -172 Q1286 -169 1284 -166 Q1282 -164 1280 -164 L814 -164 L814 -9 Q814 -5 811 -2 Q809 0 806 0 L623 0 Q619 0 616 -2 Q614 -5 614 -9 L614 -164 L149 -164 Q146 -164 144 -166 Q143 -169 143 -172 L143 -327 Q143 -330 144 -332 Q146 -335 149 -335 L550 -335 L119 -527 Q64 -552 32 -601 Q0 -650 0 -710 L0 -992 Q0 -995 2 -997 Q5 -1000 9 -1000 L191 -1000 Q195 -1000 197 -997 Q200 -995 200 -992 L200 -750 Q200 -699 251 -672 L714 -466 L1178 -672 Q1229 -699 1229 -750 L1229 -992 " />
<glyph unicode="&#xa6;" horiz-adv-x="498" d="M198 -1202 L198 -1202 Q198 -1205 195 -1207 Q193 -1210 190 -1210 L8 -1210 Q5 -1210 2 -1207 Q0 -1205 0 -1202 L0 -651 Q0 -647 2 -644 Q5 -642 8 -642 L190 -642 Q193 -642 195 -644 Q198 -647 198 -651 L198 -1202 M198 -350 L198 -350 Q198 -353 195 -355 Q193 -358 190 -358 L8 -358 Q5 -358 2 -355 Q0 -353 0 -350 L0 201 Q0 205 2 207 Q5 210 8 210 L190 210 Q193 210 195 207 Q198 205 198 201 L198 -350 " />
<glyph unicode="&#xa7;" horiz-adv-x="1512" d="M1212 -506 L1212 -506 L1212 -494 Q1212 -402 1149 -328 Q1212 -255 1212 -163 L1212 -151 Q1212 -47 1138 26 Q1064 100 960 100 L56 100 Q52 100 49 97 Q47 95 47 91 L47 -62 Q47 -66 49 -68 Q52 -71 56 -71 L960 -71 Q984 -71 1000 -87 Q1017 -104 1017 -127 L1017 -186 Q1017 -210 1000 -226 Q984 -243 960 -243 L251 -243 Q147 -243 73 -316 Q0 -390 0 -494 L0 -506 Q0 -598 62 -671 Q0 -745 0 -837 L0 -849 Q0 -953 73 -1026 Q147 -1100 251 -1100 L1156 -1100 Q1159 -1100 1161 -1097 Q1164 -1095 1164 -1091 L1164 -937 Q1164 -934 1161 -931 Q1159 -929 1156 -929 L251 -929 Q228 -929 211 -912 Q195 -896 195 -872 L195 -813 Q195 -790 211 -773 Q228 -757 251 -757 L960 -757 Q1065 -757 1138 -683 Q1212 -610 1212 -506 M1017 -529 L1017 -529 Q1017 -553 1000 -569 Q984 -586 960 -586 L251 -586 Q228 -586 211 -569 Q195 -553 195 -529 L195 -470 Q195 -447 211 -430 Q228 -414 251 -414 L960 -414 Q984 -414 1000 -430 Q1017 -447 1017 -470 L1017 -529 " />
<glyph unicode="&#xa8;" horiz-adv-x="1043" d="M220 -1172 L220 -1172 Q223 -1172 225 -1174 Q228 -1177 228 -1180 L228 -1392 Q228 -1395 225 -1397 Q223 -1400 220 -1400 L8 -1400 Q5 -1400 2 -1397 Q0 -1395 0 -1392 L0 -1180 Q0 -1177 2 -1174 Q5 -1172 8 -1172 L220 -1172 M734 -1172 L734 -1172 Q738 -1172 740 -1174 Q743 -1177 743 -1180 L743 -1392 Q743 -1395 740 -1397 Q738 -1400 734 -1400 L523 -1400 Q519 -1400 516 -1397 Q514 -1395 514 -1392 L514 -1180 Q514 -1177 516 -1174 Q519 -1172 523 -1172 L734 -1172 " />
<glyph unicode="&#xa9;" horiz-adv-x="1880" d="M1258 -682 L1258 -682 Q1258 -678 1255 -675 Q1253 -673 1250 -673 L591 -673 Q555 -673 529 -647 Q503 -622 503 -585 L503 -415 Q503 -379 529 -353 Q555 -328 591 -328 L1250 -328 Q1253 -328 1255 -325 Q1258 -323 1258 -319 L1258 -173 Q1258 -169 1255 -166 Q1253 -164 1250 -164 L585 -164 Q476 -164 399 -241 Q322 -318 322 -427 L322 -574 Q322 -683 399 -760 Q476 -837 585 -837 L1250 -837 Q1253 -837 1255 -834 Q1258 -832 1258 -828 L1258 -682 M0 -837 L0 -837 Q0 -946 77 -1023 Q154 -1100 263 -1100 L1317 -1100 Q1426 -1100 1503 -1023 Q1580 -946 1580 -837 L1580 -164 Q1580 -55 1503 22 Q1426 100 1317 100 L263 100 Q154 100 77 22 Q0 -55 0 -164 L0 -837 M1317 -47 L1317 -47 Q1353 -47 1379 -72 Q1405 -98 1405 -135 L1405 -866 Q1405 -903 1379 -928 Q1353 -954 1317 -954 L263 -954 Q227 -954 201 -928 Q175 -903 175 -866 L175 -135 Q175 -98 201 -72 Q227 -47 263 -47 L1317 -47 " />
<glyph unicode="&#xaa;" horiz-adv-x="1215" d="M183 -343 L183 -343 L906 -343 Q910 -343 912 -345 Q915 -348 915 -352 L915 -817 Q915 -893 861 -946 Q807 -1000 732 -1000 L43 -1000 Q40 -1000 37 -997 Q35 -995 35 -992 L35 -849 Q35 -845 37 -842 Q40 -840 43 -840 L715 -840 Q724 -840 730 -833 Q737 -827 737 -817 L737 -755 L183 -755 Q107 -755 53 -701 Q0 -647 0 -572 L0 -526 Q0 -450 53 -396 Q107 -343 183 -343 M200 -595 L200 -595 L737 -595 L737 -503 L200 -503 Q191 -503 184 -510 Q177 -517 177 -526 L177 -572 Q177 -581 184 -588 Q191 -595 200 -595 " />
<glyph unicode="&#xab;" horiz-adv-x="1437" d="M628 -846 L628 -846 Q634 -846 636 -840 Q638 -835 633 -831 L223 -503 L633 -175 Q638 -171 636 -165 Q634 -160 628 -160 L426 -160 Q424 -160 421 -162 L3 -496 Q0 -499 0 -503 Q0 -507 3 -510 L421 -844 Q424 -846 426 -846 L628 -846 M1128 -846 L1128 -846 Q1134 -846 1136 -840 Q1138 -835 1133 -831 L723 -503 L1133 -175 Q1138 -171 1136 -165 Q1134 -160 1128 -160 L926 -160 Q924 -160 921 -162 L503 -496 Q500 -499 500 -503 Q500 -507 503 -510 L921 -844 Q924 -846 926 -846 L1128 -846 " />
<glyph unicode="&#xad;" horiz-adv-x="872" d="M566 -419 L566 -419 Q568 -419 570 -421 Q572 -424 572 -427 L572 -582 Q572 -585 570 -587 Q568 -590 566 -590 L7 -590 Q4 -590 2 -587 Q0 -585 0 -582 L0 -427 Q0 -424 2 -421 Q4 -419 7 -419 L566 -419 " />
<glyph unicode="&#xae;" horiz-adv-x="1880" d="M1158 -398 L1158 -398 L1263 -176 Q1265 -171 1262 -167 Q1260 -163 1255 -163 L1074 -163 Q1069 -163 1066 -168 L972 -365 L497 -365 L497 -172 Q497 -168 494 -165 Q492 -163 488 -163 L324 -163 Q321 -163 318 -165 Q316 -168 316 -172 L316 -828 Q316 -831 318 -833 Q321 -836 324 -836 L1047 -836 Q1132 -836 1192 -776 Q1252 -716 1252 -631 L1252 -570 Q1252 -464 1158 -398 M1071 -552 L1071 -552 L1071 -649 Q1071 -659 1064 -665 Q1057 -672 1047 -672 L497 -672 L497 -529 L1047 -529 Q1057 -529 1064 -536 Q1071 -543 1071 -552 M0 -836 L0 -836 Q0 -945 77 -1022 Q154 -1100 263 -1100 L1317 -1100 Q1426 -1100 1503 -1022 Q1580 -945 1580 -836 L1580 -163 Q1580 -54 1503 23 Q1426 100 1317 100 L263 100 Q154 100 77 23 Q0 -54 0 -163 L0 -836 M1317 -46 L1317 -46 Q1353 -46 1378 -72 Q1404 -98 1404 -134 L1404 -866 Q1404 -902 1378 -927 Q1353 -953 1317 -953 L263 -953 Q227 -953 201 -927 Q175 -902 175 -866 L175 -134 Q175 -98 201 -72 Q227 -46 263 -46 L1317 -46 " />
<glyph unicode="&#xaf;" horiz-adv-x="1300" d="M994 -1000 L994 -1000 Q996 -1000 998 -1002 Q1000 -1005 1000 -1009 L1000 -1163 Q1000 -1166 998 -1168 Q996 -1171 994 -1171 L6 -1171 Q3 -1171 1 -1168 Q0 -1166 0 -1163 L0 -1009 Q0 -1005 1 -1002 Q3 -1000 6 -1000 L994 -1000 " />
<glyph unicode="&#xb0;" horiz-adv-x="785" d="M242 -858 L242 -858 Q201 -858 171 -828 Q142 -799 142 -758 Q142 -716 171 -687 Q201 -658 242 -658 Q284 -658 313 -687 Q342 -716 342 -758 Q342 -799 313 -828 Q284 -858 242 -858 M242 -1000 L242 -1000 L242 -1000 Q343 -1000 414 -929 Q485 -858 485 -758 Q485 -657 414 -586 Q343 -515 242 -515 Q142 -515 71 -586 Q0 -657 0 -758 Q0 -858 71 -929 Q142 -1000 242 -1000 " />
<glyph unicode="&#xb1;" horiz-adv-x="1015" d="M708 -728 L708 -728 Q710 -728 712 -725 Q714 -723 714 -719 L714 -565 Q714 -561 712 -558 Q710 -556 708 -556 L457 -556 L457 -291 Q457 -289 454 -287 Q452 -285 448 -285 L265 -285 Q262 -285 259 -287 Q257 -289 257 -291 L257 -556 L6 -556 Q3 -556 1 -558 Q-1 -561 -1 -565 L-1 -719 Q-1 -723 1 -725 Q3 -728 6 -728 L257 -728 L257 -993 Q257 -996 259 -997 Q262 -999 265 -999 L448 -999 Q452 -999 454 -997 Q457 -996 457 -993 L457 -728 L708 -728 M709 0 L709 0 Q711 0 713 -2 Q715 -5 715 -8 L715 -163 Q715 -166 713 -168 Q711 -171 709 -171 L7 -171 Q4 -171 2 -168 Q0 -166 0 -163 L0 -8 Q0 -5 2 -2 Q4 0 7 0 L709 0 " />
<glyph unicode="&#xb2;" horiz-adv-x="1215" d="M715 -1000 L715 -1000 Q797 -1000 856 -941 Q915 -883 915 -800 L915 -791 Q915 -709 856 -650 Q797 -591 715 -591 L200 -591 Q191 -591 184 -584 Q177 -578 177 -569 L177 -503 L872 -503 Q875 -503 877 -500 Q880 -498 880 -494 L880 -351 Q880 -348 877 -345 Q875 -343 872 -343 L9 -343 Q5 -343 2 -345 Q0 -348 0 -351 L0 -551 Q0 -634 58 -692 Q117 -751 200 -751 L715 -751 Q724 -751 730 -758 Q737 -765 737 -774 L737 -817 Q737 -827 730 -833 Q724 -840 715 -840 L43 -840 Q40 -840 37 -842 Q35 -845 35 -849 L35 -991 Q35 -995 37 -997 Q40 -1000 43 -1000 L715 -1000 " />
<glyph unicode="&#xb3;" horiz-adv-x="1215" d="M915 -800 L915 -800 L915 -791 Q915 -726 875 -671 Q915 -617 915 -551 L915 -543 Q915 -460 856 -401 Q797 -343 715 -343 L9 -343 Q5 -343 2 -345 Q0 -348 0 -351 L0 -494 Q0 -498 2 -500 Q5 -503 9 -503 L715 -503 Q724 -503 730 -509 Q737 -516 737 -526 L737 -568 Q737 -578 730 -584 Q724 -591 715 -591 L95 -591 Q91 -591 88 -593 Q86 -596 86 -600 L86 -743 Q86 -746 88 -748 Q91 -751 95 -751 L715 -751 Q724 -751 730 -758 Q737 -765 737 -774 L737 -817 Q737 -827 730 -833 Q724 -840 715 -840 L9 -840 Q5 -840 2 -842 Q0 -845 0 -849 L0 -991 Q0 -995 2 -997 Q5 -1000 9 -1000 L715 -1000 Q797 -1000 856 -941 Q915 -883 915 -800 " />
<glyph unicode="&#xb4;" horiz-adv-x="853" d="M276 -1496 L3 -1142 Q0 -1137 2 -1132 Q5 -1128 10 -1128 L189 -1128 Q192 -1128 195 -1131 L549 -1485 Q553 -1489 551 -1494 Q549 -1500 543 -1500 L282 -1500 Q278 -1500 276 -1496 L276 -1496 " />
<glyph unicode="&#xb5;" horiz-adv-x="1586" d="M1086 -992 L1086 -992 Q1086 -995 1088 -997 Q1091 -1000 1095 -1000 L1277 -1000 Q1281 -1000 1283 -997 Q1286 -995 1286 -992 L1286 -629 Q1286 -487 1185 -386 Q1085 -286 943 -286 L343 -286 Q267 -286 200 -317 L200 -9 Q200 -5 197 -2 Q195 0 192 0 L9 0 Q5 0 2 -2 Q0 -5 0 -9 L0 -992 Q0 -995 2 -997 Q5 -1000 9 -1000 L192 -1000 Q195 -1000 197 -997 Q200 -995 200 -992 L200 -600 Q200 -541 242 -499 Q284 -457 343 -457 L943 -457 Q1002 -457 1044 -499 Q1086 -541 1086 -600 L1086 -992 " />
<glyph unicode="&#xb6;" horiz-adv-x="1300" d="M657 -992 L657 -992 Q657 -995 654 -997 Q652 -1000 649 -1000 L286 -1000 Q168 -1000 84 -916 Q0 -833 0 -714 L0 -614 Q0 -496 84 -412 Q168 -329 286 -329 L486 -329 L486 -9 Q486 -5 488 -2 Q491 0 495 0 L649 0 Q652 0 654 -2 Q657 -5 657 -9 L657 -992 M829 -992 L829 -992 Q829 -995 831 -997 Q834 -1000 837 -1000 L992 -1000 Q995 -1000 997 -997 Q1000 -995 1000 -992 L1000 -9 Q1000 -5 997 -2 Q995 0 992 0 L837 0 Q834 0 831 -2 Q829 -5 829 -9 L829 -992 " />
<glyph unicode="&#xb8;" horiz-adv-x="786" d="M357 146 L357 146 Q411 146 448 183 Q486 221 486 275 L486 403 Q486 456 448 494 Q411 532 357 532 L9 532 Q5 532 2 529 Q0 527 0 523 L0 403 Q0 400 2 397 Q5 395 9 395 L340 395 L340 283 L84 283 Q80 283 77 279 Q75 276 76 272 L170 6 Q172 0 178 0 L305 0 Q309 0 311 4 Q314 8 313 12 L260 146 L357 146 " />
<glyph unicode="&#xb9;" horiz-adv-x="597" d="M8 -840 L8 -840 Q5 -840 2 -842 Q0 -845 0 -849 L0 -991 Q0 -995 2 -997 Q5 -1000 8 -1000 L288 -1000 Q292 -1000 294 -997 Q297 -995 297 -991 L297 -351 Q297 -348 294 -345 Q292 -343 288 -343 L128 -343 Q125 -343 122 -345 Q120 -348 120 -351 L120 -840 L8 -840 " />
<glyph unicode="&#xba;" horiz-adv-x="1214" d="M714 -1000 L714 -1000 Q797 -1000 855 -941 Q914 -883 914 -800 L914 -543 Q914 -460 855 -401 Q797 -343 714 -343 L200 -343 Q117 -343 58 -401 Q0 -460 0 -543 L0 -800 Q0 -883 58 -941 Q117 -1000 200 -1000 L714 -1000 M177 -817 L177 -817 L177 -526 Q177 -516 184 -509 Q191 -503 200 -503 L714 -503 Q724 -503 730 -509 Q737 -516 737 -526 L737 -817 Q737 -827 730 -833 Q724 -840 714 -840 L200 -840 Q191 -840 184 -833 Q177 -827 177 -817 " />
<glyph unicode="&#xbb;" horiz-adv-x="1433" d="M11 -846 L212 -846 Q215 -846 217 -844 L635 -510 Q638 -507 638 -503 Q638 -499 635 -496 L217 -162 Q215 -160 212 -160 L11 -160 Q5 -160 3 -165 Q1 -171 5 -175 L415 -503 L5 -831 Q1 -835 3 -840 Q5 -846 11 -846 L11 -846 M506 -846 L707 -846 Q710 -846 712 -844 L1130 -510 Q1133 -507 1133 -503 Q1133 -499 1130 -496 L712 -162 Q710 -160 707 -160 L506 -160 Q500 -160 498 -165 Q496 -171 500 -175 L910 -503 L500 -831 Q496 -835 498 -840 Q500 -846 506 -846 L506 -846 " />
<glyph unicode="&#xbc;" horiz-adv-x="2157" d="M1679 -648 L1679 -648 Q1679 -652 1681 -654 Q1684 -657 1688 -657 L1848 -657 Q1851 -657 1854 -654 Q1857 -652 1857 -648 L1857 -8 Q1857 -5 1854 -2 Q1851 0 1848 0 L1688 0 Q1684 0 1681 -2 Q1679 -5 1679 -8 L1679 -197 L1137 -197 Q1056 -197 999 -254 Q942 -311 942 -392 L942 -648 Q942 -652 944 -654 Q947 -657 951 -657 L1111 -657 Q1114 -657 1116 -654 Q1119 -652 1119 -648 L1119 -375 Q1119 -367 1124 -362 Q1130 -357 1137 -357 L1679 -357 L1679 -648 M9 -840 L9 -840 Q5 -840 2 -842 Q0 -845 0 -848 L0 -991 Q0 -995 2 -997 Q5 -1000 9 -1000 L289 -1000 Q292 -1000 294 -997 Q297 -995 297 -991 L297 -351 Q297 -348 294 -345 Q292 -343 289 -343 L129 -343 Q125 -343 122 -345 Q120 -348 120 -351 L120 -840 L9 -840 M998 -987 L998 -987 Q1001 -991 998 -995 Q996 -1000 991 -1000 L811 -1000 Q806 -1000 803 -995 L241 -13 Q239 -8 241 -4 Q244 0 249 0 L429 0 Q434 0 437 -4 L998 -987 " />
<glyph unicode="&#xbd;" horiz-adv-x="2157" d="M1657 -657 L1657 -657 Q1739 -657 1798 -598 Q1857 -540 1857 -457 L1857 -448 Q1857 -365 1798 -306 Q1739 -248 1657 -248 L1142 -248 Q1133 -248 1126 -241 Q1119 -235 1119 -225 L1119 -160 L1814 -160 Q1817 -160 1819 -157 Q1822 -155 1822 -151 L1822 -8 Q1822 -5 1819 -2 Q1817 0 1814 0 L951 0 Q947 0 944 -2 Q942 -5 942 -8 L942 -208 Q942 -291 1000 -349 Q1059 -408 1142 -408 L1657 -408 Q1666 -408 1672 -415 Q1679 -422 1679 -431 L1679 -474 Q1679 -483 1672 -490 Q1666 -497 1657 -497 L985 -497 Q982 -497 979 -499 Q977 -502 977 -505 L977 -648 Q977 -652 979 -654 Q982 -657 985 -657 L1657 -657 M9 -840 L9 -840 Q5 -840 2 -842 Q0 -845 0 -848 L0 -991 Q0 -995 2 -997 Q5 -1000 9 -1000 L289 -1000 Q292 -1000 294 -997 Q297 -995 297 -991 L297 -351 Q297 -348 294 -345 Q292 -343 289 -343 L129 -343 Q125 -343 122 -345 Q120 -348 120 -351 L120 -840 L9 -840 M998 -987 L998 -987 Q1001 -991 998 -995 Q996 -1000 991 -1000 L811 -1000 Q806 -1000 803 -995 L241 -13 Q239 -8 241 -4 Q244 0 249 0 L429 0 Q434 0 437 -4 L998 -987 " />
<glyph unicode="&#xbe;" horiz-adv-x="2745" d="M915 -800 L915 -800 L915 -792 Q915 -726 875 -672 Q915 -617 915 -552 L915 -543 Q915 -460 856 -401 Q798 -343 715 -343 L9 -343 Q5 -343 2 -345 Q0 -348 0 -352 L0 -495 Q0 -498 2 -500 Q5 -503 9 -503 L715 -503 Q724 -503 731 -510 Q738 -517 738 -526 L738 -569 Q738 -578 731 -585 Q724 -592 715 -592 L95 -592 Q91 -592 88 -594 Q86 -597 86 -600 L86 -743 Q86 -747 88 -749 Q91 -752 95 -752 L715 -752 Q724 -752 731 -758 Q738 -765 738 -775 L738 -817 Q738 -827 731 -833 Q724 -840 715 -840 L9 -840 Q5 -840 2 -842 Q0 -845 0 -849 L0 -992 Q0 -995 2 -997 Q5 -1000 9 -1000 L715 -1000 Q798 -1000 856 -941 Q915 -883 915 -800 M2268 -649 L2268 -649 Q2268 -652 2270 -654 Q2273 -657 2277 -657 L2437 -657 Q2440 -657 2442 -654 Q2445 -652 2445 -649 L2445 -9 Q2445 -5 2442 -2 Q2440 0 2437 0 L2277 0 Q2273 0 2270 -2 Q2268 -5 2268 -9 L2268 -197 L1726 -197 Q1645 -197 1588 -254 Q1531 -312 1531 -392 L1531 -649 Q1531 -652 1533 -654 Q1536 -657 1540 -657 L1700 -657 Q1703 -657 1705 -654 Q1708 -652 1708 -649 L1708 -375 Q1708 -368 1713 -362 Q1718 -357 1726 -357 L2268 -357 L2268 -649 M1587 -987 L1587 -987 Q1589 -992 1586 -996 Q1584 -1000 1580 -1000 L1399 -1000 Q1395 -1000 1392 -996 L830 -13 Q828 -9 830 -4 Q833 0 838 0 L1018 0 Q1022 0 1025 -5 L1587 -987 " />
<glyph unicode="&#xbf;" horiz-adv-x="1729" d="M1429 491 L1429 491 Q1429 495 1426 497 Q1424 500 1420 500 L257 500 Q151 500 75 424 Q0 349 0 243 L0 200 Q0 93 75 18 Q151 -57 257 -57 L1229 -57 L1229 -163 Q1229 -167 1231 -169 Q1234 -172 1237 -172 L1420 -172 Q1424 -172 1426 -169 Q1429 -167 1429 -163 L1429 105 Q1429 109 1426 111 Q1424 114 1420 114 L286 114 Q250 114 225 139 Q200 164 200 200 L200 243 Q200 278 225 303 Q250 328 286 328 L1420 328 Q1424 328 1426 330 Q1429 333 1429 337 L1429 491 M1229 -337 L1229 -337 Q1229 -334 1231 -331 Q1234 -329 1237 -329 L1420 -329 Q1424 -329 1426 -331 Q1429 -334 1429 -337 L1429 -492 Q1429 -495 1426 -497 Q1424 -500 1420 -500 L1237 -500 Q1234 -500 1231 -497 Q1229 -495 1229 -492 L1229 -337 " />
<glyph unicode="&#xc0;" horiz-adv-x="1804" d="M914 -924 L914 -924 Q994 -1000 1096 -1000 L1495 -1000 Q1499 -1000 1501 -997 Q1504 -995 1504 -991 L1504 -8 Q1504 -5 1501 -2 Q1499 0 1495 0 L1312 0 Q1309 0 1306 -2 Q1304 -5 1304 -8 L1304 -828 L1137 -828 Q1103 -828 1077 -803 L271 -2 Q268 0 265 0 L10 0 Q4 0 2 -5 Q0 -10 4 -14 L914 -924 M1126 -1497 L1126 -1497 Q1124 -1501 1120 -1501 L859 -1501 Q853 -1501 851 -1495 Q849 -1490 853 -1486 L1207 -1132 Q1210 -1129 1213 -1129 L1392 -1129 Q1398 -1129 1400 -1133 Q1402 -1138 1399 -1143 L1126 -1497 " />
<glyph unicode="&#xc1;" horiz-adv-x="1804" d="M914 -924 L914 -924 Q994 -1000 1096 -1000 L1495 -1000 Q1499 -1000 1501 -997 Q1504 -995 1504 -991 L1504 -8 Q1504 -5 1501 -2 Q1499 0 1495 0 L1312 0 Q1309 0 1306 -2 Q1304 -5 1304 -8 L1304 -828 L1137 -828 Q1103 -828 1077 -803 L271 -2 Q268 0 265 0 L10 0 Q4 0 2 -5 Q0 -10 4 -14 L914 -924 M1376 -1497 L1103 -1143 Q1100 -1138 1102 -1133 Q1105 -1129 1110 -1129 L1289 -1129 Q1292 -1129 1295 -1132 L1649 -1486 Q1653 -1490 1651 -1495 Q1649 -1501 1643 -1501 L1382 -1501 Q1378 -1501 1376 -1497 L1376 -1497 " />
<glyph unicode="&#xc2;" horiz-adv-x="1804" d="M914 -924 L914 -924 Q994 -1000 1096 -1000 L1495 -1000 Q1499 -1000 1501 -997 Q1504 -995 1504 -991 L1504 -8 Q1504 -5 1501 -2 Q1499 0 1495 0 L1312 0 Q1309 0 1306 -2 Q1304 -5 1304 -8 L1304 -828 L1137 -828 Q1103 -828 1077 -803 L271 -2 Q268 0 265 0 L10 0 Q4 0 2 -5 Q0 -10 4 -14 L914 -924 M1499 -1142 L1499 -1142 Q1502 -1137 1499 -1132 Q1497 -1128 1492 -1128 L1341 -1128 Q1337 -1128 1335 -1131 L1137 -1365 L940 -1131 Q937 -1128 933 -1128 L782 -1128 Q777 -1128 774 -1132 Q772 -1137 775 -1142 L1020 -1496 Q1023 -1500 1027 -1500 L1247 -1500 Q1251 -1500 1254 -1496 L1499 -1142 " />
<glyph unicode="&#xc3;" horiz-adv-x="1804" d="M914 -924 L914 -924 Q994 -1000 1096 -1000 L1495 -1000 Q1499 -1000 1501 -997 Q1504 -995 1504 -991 L1504 -8 Q1504 -5 1501 -2 Q1499 0 1495 0 L1312 0 Q1309 0 1306 -2 Q1304 -5 1304 -8 L1304 -828 L1137 -828 Q1103 -828 1077 -803 L271 -2 Q268 0 265 0 L10 0 Q4 0 2 -5 Q0 -10 4 -14 L914 -924 M1357 -1393 L1357 -1393 Q1357 -1396 1359 -1398 Q1362 -1401 1365 -1401 L1491 -1401 Q1495 -1401 1497 -1398 Q1500 -1396 1500 -1392 L1500 -1367 Q1500 -1272 1428 -1213 Q1356 -1154 1259 -1171 L1032 -1218 Q990 -1226 959 -1200 Q929 -1175 929 -1135 L929 -1135 Q929 -1131 926 -1129 Q924 -1127 921 -1127 L794 -1127 Q791 -1127 788 -1129 Q786 -1132 786 -1135 L786 -1161 Q786 -1256 858 -1314 Q930 -1373 1027 -1357 L1254 -1309 Q1295 -1302 1326 -1327 Q1357 -1352 1357 -1393 L1357 -1393 " />
<glyph unicode="&#xc4;" horiz-adv-x="1804" d="M914 -924 L914 -924 Q994 -1000 1096 -1000 L1495 -1000 Q1499 -1000 1501 -997 Q1504 -995 1504 -991 L1504 -8 Q1504 -5 1501 -2 Q1499 0 1495 0 L1312 0 Q1309 0 1306 -2 Q1304 -5 1304 -8 L1304 -828 L1137 -828 Q1103 -828 1077 -803 L271 -2 Q268 0 265 0 L10 0 Q4 0 2 -5 Q0 -10 4 -14 L914 -924 M977 -1171 L977 -1171 Q980 -1171 982 -1173 Q985 -1176 985 -1179 L985 -1391 Q985 -1394 982 -1396 Q980 -1399 977 -1399 L765 -1399 Q762 -1399 759 -1396 Q757 -1394 757 -1391 L757 -1179 Q757 -1176 759 -1173 Q762 -1171 765 -1171 L977 -1171 M1491 -1171 L1491 -1171 Q1495 -1171 1497 -1173 Q1500 -1176 1500 -1179 L1500 -1391 Q1500 -1394 1497 -1396 Q1495 -1399 1491 -1399 L1280 -1399 Q1276 -1399 1273 -1396 Q1271 -1394 1271 -1391 L1271 -1179 Q1271 -1176 1273 -1173 Q1276 -1171 1280 -1171 L1491 -1171 " />
<glyph unicode="&#xc5;" horiz-adv-x="1804" d="M914 -924 L914 -924 Q994 -1000 1096 -1000 L1495 -1000 Q1499 -1000 1501 -997 Q1504 -995 1504 -991 L1504 -8 Q1504 -5 1501 -2 Q1499 0 1495 0 L1312 0 Q1309 0 1306 -2 Q1304 -5 1304 -8 L1304 -828 L1137 -828 Q1103 -828 1077 -803 L271 -2 Q268 0 265 0 L10 0 Q4 0 2 -5 Q0 -10 4 -14 L914 -924 M1285 -1205 L1285 -1205 Q1244 -1205 1214 -1176 Q1185 -1147 1185 -1105 Q1185 -1064 1214 -1034 Q1244 -1005 1285 -1005 Q1326 -1005 1355 -1034 Q1385 -1064 1385 -1105 Q1385 -1147 1355 -1176 Q1326 -1205 1285 -1205 M1285 -1320 L1285 -1320 L1285 -1320 Q1374 -1320 1436 -1257 Q1499 -1194 1499 -1105 Q1499 -1017 1436 -954 Q1374 -891 1285 -891 Q1196 -891 1133 -954 Q1071 -1017 1071 -1105 Q1071 -1194 1133 -1257 Q1196 -1320 1285 -1320 " />
<glyph unicode="&#xc6;" horiz-adv-x="2746" d="M2446 -837 L2446 -837 Q2446 -834 2443 -831 Q2441 -829 2437 -829 L1503 -829 L1503 -586 L2294 -586 Q2298 -586 2300 -583 Q2303 -581 2303 -577 L2303 -423 Q2303 -420 2300 -417 Q2298 -415 2294 -415 L1503 -415 L1503 -257 Q1503 -222 1528 -197 Q1553 -172 1589 -172 L2437 -172 Q2441 -172 2443 -169 Q2446 -167 2446 -163 L2446 -9 Q2446 -5 2443 -2 Q2441 0 2437 0 L1560 0 Q1454 0 1378 -75 Q1303 -151 1303 -257 L1303 -829 L1137 -829 Q1103 -829 1076 -804 L270 -3 Q268 0 264 0 L9 0 Q4 0 2 -5 Q0 -11 3 -15 L913 -925 Q993 -1000 1095 -1000 L2437 -1000 Q2441 -1000 2443 -997 Q2446 -995 2446 -992 L2446 -837 " />
<glyph unicode="&#xc7;" horiz-adv-x="1729" d="M286 -171 L286 -171 Q250 -171 225 -196 Q200 -222 200 -257 L200 -743 Q200 -778 225 -803 Q250 -829 286 -829 L1420 -829 Q1424 -829 1426 -831 Q1429 -834 1429 -837 L1429 -991 Q1429 -995 1426 -997 Q1424 -1000 1420 -1000 L286 -1000 Q167 -1000 83 -916 Q0 -833 0 -714 L0 -286 Q0 -167 83 -83 Q167 0 286 0 L1420 0 Q1424 0 1426 -2 Q1429 -5 1429 -9 L1429 -163 Q1429 -166 1426 -168 Q1424 -171 1420 -171 L286 -171 M828 146 L828 146 Q882 146 919 183 Q957 221 957 275 L957 403 Q957 456 919 494 Q882 532 828 532 L480 532 Q476 532 473 529 Q471 527 471 523 L471 403 Q471 400 473 397 Q476 395 480 395 L811 395 L811 283 L555 283 Q551 283 548 279 Q546 276 547 272 L641 6 Q643 0 649 0 L776 0 Q780 0 782 4 Q785 8 784 12 L731 146 L828 146 " />
<glyph unicode="&#xc8;" horiz-adv-x="1729" d="M200 -743 L200 -743 Q200 -778 225 -803 Q250 -829 286 -829 L1420 -829 Q1424 -829 1426 -831 Q1429 -834 1429 -837 L1429 -991 Q1429 -995 1426 -997 Q1424 -1000 1420 -1000 L286 -1000 Q167 -1000 83 -916 Q0 -833 0 -714 L0 -286 Q0 -167 83 -83 Q167 0 286 0 L1420 0 Q1424 0 1426 -2 Q1429 -5 1429 -9 L1429 -163 Q1429 -166 1426 -168 Q1424 -171 1420 -171 L286 -171 Q250 -171 225 -196 Q200 -222 200 -257 L200 -414 L1277 -414 Q1281 -414 1283 -416 Q1286 -419 1286 -423 L1286 -577 Q1286 -581 1283 -583 Q1281 -586 1277 -586 L200 -586 L200 -743 M676 -1497 L676 -1497 Q674 -1501 670 -1501 L409 -1501 Q403 -1501 401 -1495 Q399 -1490 403 -1486 L757 -1132 Q760 -1129 763 -1129 L942 -1129 Q948 -1129 950 -1133 Q952 -1138 949 -1143 L676 -1497 " />
<glyph unicode="&#xc9;" horiz-adv-x="1729" d="M200 -743 L200 -743 Q200 -778 225 -803 Q250 -829 286 -829 L1420 -829 Q1424 -829 1426 -831 Q1429 -834 1429 -837 L1429 -991 Q1429 -995 1426 -997 Q1424 -1000 1420 -1000 L286 -1000 Q167 -1000 83 -916 Q0 -833 0 -714 L0 -286 Q0 -167 83 -83 Q167 0 286 0 L1420 0 Q1424 0 1426 -2 Q1429 -5 1429 -9 L1429 -163 Q1429 -166 1426 -168 Q1424 -171 1420 -171 L286 -171 Q250 -171 225 -196 Q200 -222 200 -257 L200 -414 L1277 -414 Q1281 -414 1283 -416 Q1286 -419 1286 -423 L1286 -577 Q1286 -581 1283 -583 Q1281 -586 1277 -586 L200 -586 L200 -743 M825 -1496 L552 -1142 Q549 -1137 551 -1132 Q554 -1128 559 -1128 L738 -1128 Q741 -1128 744 -1131 L1098 -1485 Q1102 -1489 1100 -1494 Q1098 -1500 1092 -1500 L831 -1500 Q827 -1500 825 -1496 L825 -1496 " />
<glyph unicode="&#xca;" horiz-adv-x="1729" d="M200 -743 L200 -743 Q200 -778 225 -803 Q250 -829 286 -829 L1420 -829 Q1424 -829 1426 -831 Q1429 -834 1429 -837 L1429 -991 Q1429 -995 1426 -997 Q1424 -1000 1420 -1000 L286 -1000 Q167 -1000 83 -916 Q0 -833 0 -714 L0 -286 Q0 -167 83 -83 Q167 0 286 0 L1420 0 Q1424 0 1426 -2 Q1429 -5 1429 -9 L1429 -163 Q1429 -166 1426 -168 Q1424 -171 1420 -171 L286 -171 Q250 -171 225 -196 Q200 -222 200 -257 L200 -414 L1277 -414 Q1281 -414 1283 -416 Q1286 -419 1286 -423 L1286 -577 Q1286 -581 1283 -583 Q1281 -586 1277 -586 L200 -586 L200 -743 M1077 -1142 L1077 -1142 Q1080 -1137 1077 -1132 Q1075 -1128 1070 -1128 L919 -1128 Q915 -1128 913 -1131 L715 -1365 L518 -1131 Q515 -1128 511 -1128 L360 -1128 Q355 -1128 352 -1132 Q350 -1137 353 -1142 L598 -1496 Q601 -1500 605 -1500 L825 -1500 Q829 -1500 832 -1496 L1077 -1142 " />
<glyph unicode="&#xcb;" horiz-adv-x="1729" d="M200 -743 L200 -743 Q200 -778 225 -803 Q250 -829 286 -829 L1420 -829 Q1424 -829 1426 -831 Q1429 -834 1429 -837 L1429 -991 Q1429 -995 1426 -997 Q1424 -1000 1420 -1000 L286 -1000 Q167 -1000 83 -916 Q0 -833 0 -714 L0 -286 Q0 -167 83 -83 Q167 0 286 0 L1420 0 Q1424 0 1426 -2 Q1429 -5 1429 -9 L1429 -163 Q1429 -166 1426 -168 Q1424 -171 1420 -171 L286 -171 Q250 -171 225 -196 Q200 -222 200 -257 L200 -414 L1277 -414 Q1281 -414 1283 -416 Q1286 -419 1286 -423 L1286 -577 Q1286 -581 1283 -583 Q1281 -586 1277 -586 L200 -586 L200 -743 M563 -1172 L563 -1172 Q566 -1172 568 -1174 Q571 -1177 571 -1180 L571 -1392 Q571 -1395 568 -1397 Q566 -1400 563 -1400 L351 -1400 Q348 -1400 345 -1397 Q343 -1395 343 -1392 L343 -1180 Q343 -1177 345 -1174 Q348 -1172 351 -1172 L563 -1172 M1077 -1172 L1077 -1172 Q1081 -1172 1083 -1174 Q1086 -1177 1086 -1180 L1086 -1392 Q1086 -1395 1083 -1397 Q1081 -1400 1077 -1400 L866 -1400 Q862 -1400 859 -1397 Q857 -1395 857 -1392 L857 -1180 Q857 -1177 859 -1174 Q862 -1172 866 -1172 L1077 -1172 " />
<glyph unicode="&#xcc;" horiz-adv-x="500" d="M200 -991 L200 -991 Q200 -995 197 -997 Q195 -1000 191 -1000 L8 -1000 Q5 -1000 2 -997 Q0 -995 0 -991 L0 -8 Q0 -5 2 -2 Q5 0 8 0 L191 0 Q195 0 197 -2 Q200 -5 200 -8 L200 -991 M-73 -1496 L-73 -1496 Q-75 -1500 -79 -1500 L-340 -1500 Q-346 -1500 -348 -1494 Q-350 -1489 -346 -1485 L8 -1131 Q11 -1128 14 -1128 L193 -1128 Q199 -1128 201 -1132 Q203 -1137 200 -1142 L-73 -1496 " />
<glyph unicode="&#xcd;" horiz-adv-x="500" d="M200 -991 L200 -991 Q200 -995 197 -997 Q195 -1000 191 -1000 L8 -1000 Q5 -1000 2 -997 Q0 -995 0 -991 L0 -8 Q0 -5 2 -2 Q5 0 8 0 L191 0 Q195 0 197 -2 Q200 -5 200 -8 L200 -991 M276 -1497 L3 -1143 Q0 -1138 2 -1133 Q5 -1129 10 -1129 L189 -1129 Q192 -1129 195 -1132 L549 -1486 Q553 -1490 551 -1495 Q549 -1501 543 -1501 L282 -1501 Q278 -1501 276 -1497 L276 -1497 " />
<glyph unicode="&#xce;" horiz-adv-x="500" d="M200 -991 L200 -991 Q200 -995 197 -997 Q195 -1000 191 -1000 L8 -1000 Q5 -1000 2 -997 Q0 -995 0 -991 L0 -8 Q0 -5 2 -2 Q5 0 8 0 L191 0 Q195 0 197 -2 Q200 -5 200 -8 L200 -991 M462 -1142 L462 -1142 Q465 -1137 462 -1132 Q460 -1128 455 -1128 L304 -1128 Q300 -1128 298 -1131 L100 -1365 L-97 -1131 Q-100 -1128 -104 -1128 L-255 -1128 Q-260 -1128 -262 -1132 Q-265 -1137 -262 -1142 L-17 -1496 Q-14 -1500 -10 -1500 L210 -1500 Q214 -1500 217 -1496 L462 -1142 " />
<glyph unicode="&#xcf;" horiz-adv-x="500" d="M198 -991 L198 -991 Q198 -995 195 -997 Q193 -1000 189 -1000 L6 -1000 Q3 -1000 0 -997 Q-2 -995 -2 -991 L-2 -8 Q-2 -5 0 -2 Q3 0 6 0 L189 0 Q193 0 195 -2 Q198 -5 198 -8 L198 -991 M-53 -1172 L-53 -1172 Q-50 -1172 -47 -1174 Q-45 -1177 -45 -1180 L-45 -1392 Q-45 -1395 -47 -1397 Q-50 -1400 -53 -1400 L-265 -1400 Q-268 -1400 -270 -1397 Q-273 -1395 -273 -1392 L-273 -1180 Q-273 -1177 -270 -1174 Q-268 -1172 -265 -1172 L-53 -1172 M461 -1172 L461 -1172 Q465 -1172 467 -1174 Q470 -1177 470 -1180 L470 -1392 Q470 -1395 467 -1397 Q465 -1400 461 -1400 L250 -1400 Q246 -1400 243 -1397 Q241 -1395 241 -1392 L241 -1180 Q241 -1177 243 -1174 Q246 -1172 250 -1172 L461 -1172 " />
<glyph unicode="&#xd0;" horiz-adv-x="1929" d="M200 -991 L200 -991 Q200 -995 202 -997 Q205 -1000 209 -1000 L1343 -1000 Q1461 -1000 1545 -916 Q1629 -832 1629 -714 L1629 -286 Q1629 -167 1545 -83 Q1461 0 1343 0 L209 0 Q205 0 202 -2 Q200 -5 200 -8 L200 -414 L9 -414 Q5 -414 2 -416 Q0 -419 0 -423 L0 -577 Q0 -580 2 -583 Q5 -586 9 -586 L200 -586 L200 -991 M1343 -171 L1343 -171 Q1379 -171 1404 -196 Q1429 -221 1429 -257 L1429 -743 Q1429 -778 1404 -803 Q1379 -828 1343 -828 L400 -828 L400 -586 L849 -586 Q852 -586 854 -583 Q857 -580 857 -577 L857 -423 Q857 -419 854 -416 Q852 -414 849 -414 L400 -414 L400 -171 L1343 -171 " />
<glyph unicode="&#xd1;" horiz-adv-x="1728" d="M1228 -991 L1228 -991 Q1228 -995 1230 -997 Q1233 -1000 1237 -1000 L1420 -1000 Q1423 -1000 1425 -997 Q1428 -995 1428 -991 L1428 -8 Q1428 -5 1425 -2 Q1423 0 1420 0 L1048 0 L1046 0 Q931 -3 865 -97 L400 -790 Q371 -828 328 -828 L200 -828 L200 -8 Q200 -5 197 -2 Q195 0 191 0 L8 0 Q5 0 2 -2 Q0 -5 0 -8 L0 -991 Q0 -995 2 -997 Q5 -1000 8 -1000 L380 -1000 L382 -1000 Q497 -996 563 -902 L1028 -210 Q1056 -171 1100 -171 L1228 -171 L1228 -991 M928 -1393 L928 -1393 Q928 -1396 930 -1398 Q933 -1401 936 -1401 L1062 -1401 Q1066 -1401 1068 -1398 Q1071 -1396 1071 -1392 L1071 -1367 Q1071 -1272 999 -1213 Q927 -1154 830 -1171 L603 -1218 Q561 -1226 530 -1200 Q500 -1175 500 -1135 L500 -1135 Q500 -1131 497 -1129 Q495 -1127 492 -1127 L365 -1127 Q362 -1127 359 -1129 Q357 -1132 357 -1135 L357 -1161 Q357 -1256 429 -1314 Q501 -1373 598 -1357 L825 -1309 Q866 -1302 897 -1327 Q928 -1352 928 -1393 L928 -1393 " />
<glyph unicode="&#xd2;" horiz-adv-x="1729" d="M1143 -1000 L1143 -1000 Q1262 -1000 1345 -916 Q1429 -833 1429 -714 L1429 -286 Q1429 -167 1345 -83 Q1262 0 1143 0 L286 0 Q168 0 84 -83 Q0 -167 0 -286 L0 -714 Q0 -833 84 -916 Q168 -1000 286 -1000 L1143 -1000 M1229 -743 L1229 -743 Q1229 -778 1204 -803 Q1179 -829 1143 -829 L286 -829 Q251 -829 225 -803 Q200 -778 200 -743 L200 -257 Q200 -222 225 -196 Q251 -171 286 -171 L1143 -171 Q1179 -171 1204 -196 Q1229 -222 1229 -257 L1229 -743 M676 -1496 L676 -1496 Q674 -1500 670 -1500 L409 -1500 Q403 -1500 401 -1494 Q399 -1489 403 -1485 L757 -1131 Q760 -1128 763 -1128 L942 -1128 Q948 -1128 950 -1132 Q952 -1137 949 -1142 L676 -1496 " />
<glyph unicode="&#xd3;" horiz-adv-x="1729" d="M1143 -1000 L1143 -1000 Q1262 -1000 1345 -916 Q1429 -833 1429 -714 L1429 -286 Q1429 -167 1345 -83 Q1262 0 1143 0 L286 0 Q168 0 84 -83 Q0 -167 0 -286 L0 -714 Q0 -833 84 -916 Q168 -1000 286 -1000 L1143 -1000 M1229 -743 L1229 -743 Q1229 -778 1204 -803 Q1179 -829 1143 -829 L286 -829 Q251 -829 225 -803 Q200 -778 200 -743 L200 -257 Q200 -222 225 -196 Q251 -171 286 -171 L1143 -171 Q1179 -171 1204 -196 Q1229 -222 1229 -257 L1229 -743 M826 -1497 L553 -1143 Q550 -1138 552 -1133 Q555 -1129 560 -1129 L739 -1129 Q742 -1129 745 -1132 L1099 -1486 Q1103 -1490 1101 -1495 Q1099 -1501 1093 -1501 L832 -1501 Q828 -1501 826 -1497 L826 -1497 " />
<glyph unicode="&#xd4;" horiz-adv-x="1729" d="M1143 -1000 L1143 -1000 Q1262 -1000 1345 -916 Q1429 -833 1429 -714 L1429 -286 Q1429 -167 1345 -83 Q1262 0 1143 0 L286 0 Q168 0 84 -83 Q0 -167 0 -286 L0 -714 Q0 -833 84 -916 Q168 -1000 286 -1000 L1143 -1000 M1229 -743 L1229 -743 Q1229 -778 1204 -803 Q1179 -829 1143 -829 L286 -829 Q251 -829 225 -803 Q200 -778 200 -743 L200 -257 Q200 -222 225 -196 Q251 -171 286 -171 L1143 -171 Q1179 -171 1204 -196 Q1229 -222 1229 -257 L1229 -743 M1077 -1142 L1077 -1142 Q1080 -1137 1077 -1132 Q1075 -1128 1070 -1128 L919 -1128 Q915 -1128 913 -1131 L715 -1365 L518 -1131 Q515 -1128 511 -1128 L360 -1128 Q355 -1128 352 -1132 Q350 -1137 353 -1142 L598 -1496 Q601 -1500 605 -1500 L825 -1500 Q829 -1500 832 -1496 L1077 -1142 " />
<glyph unicode="&#xd5;" horiz-adv-x="1729" d="M1143 -1000 L1143 -1000 Q1262 -1000 1345 -916 Q1429 -833 1429 -714 L1429 -286 Q1429 -167 1345 -83 Q1262 0 1143 0 L286 0 Q168 0 84 -83 Q0 -167 0 -286 L0 -714 Q0 -833 84 -916 Q168 -1000 286 -1000 L1143 -1000 M1229 -743 L1229 -743 Q1229 -778 1204 -803 Q1179 -829 1143 -829 L286 -829 Q251 -829 225 -803 Q200 -778 200 -743 L200 -257 Q200 -222 225 -196 Q251 -171 286 -171 L1143 -171 Q1179 -171 1204 -196 Q1229 -222 1229 -257 L1229 -743 M929 -1392 L929 -1392 Q929 -1395 931 -1397 Q934 -1400 937 -1400 L1063 -1400 Q1067 -1400 1069 -1397 Q1072 -1395 1072 -1391 L1072 -1366 Q1072 -1271 1000 -1212 Q928 -1153 831 -1170 L604 -1217 Q562 -1225 531 -1199 Q501 -1174 501 -1134 L501 -1134 Q501 -1130 498 -1128 Q496 -1126 493 -1126 L366 -1126 Q363 -1126 360 -1128 Q358 -1131 358 -1134 L358 -1160 Q358 -1255 430 -1313 Q502 -1372 599 -1356 L826 -1308 Q867 -1301 898 -1326 Q929 -1351 929 -1392 L929 -1392 " />
<glyph unicode="&#xd6;" horiz-adv-x="1729" d="M1143 -1000 L1143 -1000 Q1262 -1000 1345 -916 Q1429 -833 1429 -714 L1429 -286 Q1429 -167 1345 -83 Q1262 0 1143 0 L286 0 Q168 0 84 -83 Q0 -167 0 -286 L0 -714 Q0 -833 84 -916 Q168 -1000 286 -1000 L1143 -1000 M1229 -743 L1229 -743 Q1229 -778 1204 -803 Q1179 -829 1143 -829 L286 -829 Q251 -829 225 -803 Q200 -778 200 -743 L200 -257 Q200 -222 225 -196 Q251 -171 286 -171 L1143 -171 Q1179 -171 1204 -196 Q1229 -222 1229 -257 L1229 -743 M563 -1172 L563 -1172 Q566 -1172 568 -1174 Q571 -1177 571 -1180 L571 -1392 Q571 -1395 568 -1397 Q566 -1400 563 -1400 L351 -1400 Q348 -1400 345 -1397 Q343 -1395 343 -1392 L343 -1180 Q343 -1177 345 -1174 Q348 -1172 351 -1172 L563 -1172 M1077 -1172 L1077 -1172 Q1081 -1172 1083 -1174 Q1086 -1177 1086 -1180 L1086 -1392 Q1086 -1395 1083 -1397 Q1081 -1400 1077 -1400 L866 -1400 Q862 -1400 859 -1397 Q857 -1395 857 -1392 L857 -1180 Q857 -1177 859 -1174 Q862 -1172 866 -1172 L1077 -1172 " />
<glyph unicode="&#xd7;" horiz-adv-x="1000" d="M698 -725 L698 -725 Q700 -722 700 -719 Q700 -716 698 -713 L492 -507 L698 -301 Q700 -298 700 -294 Q700 -291 698 -288 L569 -159 Q566 -157 562 -157 Q559 -157 556 -159 L350 -365 L144 -159 Q141 -157 138 -157 Q135 -157 132 -159 L3 -288 Q0 -291 0 -294 Q0 -298 3 -301 L209 -507 L3 -713 Q0 -716 0 -719 Q0 -722 3 -725 L132 -854 Q135 -857 138 -857 Q141 -857 144 -854 L350 -648 L556 -854 Q559 -857 562 -857 Q566 -857 569 -854 L698 -725 " />
<glyph unicode="&#xd8;" horiz-adv-x="1729" d="M1143 -1000 L1143 -1000 Q1261 -1000 1345 -916 Q1429 -832 1429 -714 L1429 -286 Q1429 -167 1345 -83 Q1261 0 1143 0 L286 0 Q167 0 83 -83 Q0 -167 0 -286 L0 -714 Q0 -832 83 -916 Q167 -1000 286 -1000 L1143 -1000 M286 -171 L286 -171 L427 -171 L802 -828 L286 -828 Q250 -828 225 -803 Q200 -778 200 -743 L200 -257 Q200 -221 225 -196 Q250 -171 286 -171 M1229 -257 L1229 -257 L1229 -743 Q1229 -778 1203 -803 Q1178 -828 1143 -828 L1002 -828 L627 -171 L1143 -171 Q1178 -171 1203 -196 Q1229 -221 1229 -257 " />
<glyph unicode="&#xd9;" horiz-adv-x="1729" d="M1429 -991 L1429 -991 Q1429 -995 1426 -997 Q1424 -1000 1420 -1000 L1238 -1000 Q1234 -1000 1231 -997 Q1229 -995 1229 -991 L1229 -257 Q1229 -221 1204 -196 Q1179 -171 1143 -171 L286 -171 Q251 -171 225 -196 Q200 -221 200 -257 L200 -991 Q200 -995 197 -997 Q195 -1000 192 -1000 L9 -1000 Q5 -1000 2 -997 Q0 -995 0 -991 L0 -285 Q0 -167 84 -83 Q168 0 286 0 L1143 0 Q1262 0 1345 -83 Q1429 -167 1429 -285 L1429 -991 M676 -1496 L676 -1496 Q674 -1500 670 -1500 L409 -1500 Q403 -1500 401 -1494 Q399 -1489 403 -1485 L757 -1131 Q760 -1128 763 -1128 L942 -1128 Q948 -1128 950 -1132 Q952 -1137 949 -1142 L676 -1496 " />
<glyph unicode="&#xda;" horiz-adv-x="1729" d="M1429 -991 L1429 -991 Q1429 -995 1426 -997 Q1424 -1000 1420 -1000 L1238 -1000 Q1234 -1000 1231 -997 Q1229 -995 1229 -991 L1229 -257 Q1229 -221 1204 -196 Q1179 -171 1143 -171 L286 -171 Q251 -171 225 -196 Q200 -221 200 -257 L200 -991 Q200 -995 197 -997 Q195 -1000 192 -1000 L9 -1000 Q5 -1000 2 -997 Q0 -995 0 -991 L0 -285 Q0 -167 84 -83 Q168 0 286 0 L1143 0 Q1262 0 1345 -83 Q1429 -167 1429 -285 L1429 -991 M825 -1497 L552 -1143 Q549 -1138 551 -1133 Q554 -1129 559 -1129 L738 -1129 Q741 -1129 744 -1132 L1098 -1486 Q1102 -1490 1100 -1495 Q1098 -1501 1092 -1501 L831 -1501 Q827 -1501 825 -1497 L825 -1497 " />
<glyph unicode="&#xdb;" horiz-adv-x="1729" d="M1429 -991 L1429 -991 Q1429 -995 1426 -997 Q1424 -1000 1420 -1000 L1238 -1000 Q1234 -1000 1231 -997 Q1229 -995 1229 -991 L1229 -257 Q1229 -221 1204 -196 Q1179 -171 1143 -171 L286 -171 Q251 -171 225 -196 Q200 -221 200 -257 L200 -991 Q200 -995 197 -997 Q195 -1000 192 -1000 L9 -1000 Q5 -1000 2 -997 Q0 -995 0 -991 L0 -285 Q0 -167 84 -83 Q168 0 286 0 L1143 0 Q1262 0 1345 -83 Q1429 -167 1429 -285 L1429 -991 M1078 -1143 L1078 -1143 Q1081 -1138 1078 -1133 Q1076 -1129 1071 -1129 L920 -1129 Q916 -1129 914 -1132 L716 -1366 L519 -1132 Q516 -1129 512 -1129 L361 -1129 Q356 -1129 353 -1133 Q351 -1138 354 -1143 L599 -1497 Q602 -1501 606 -1501 L826 -1501 Q830 -1501 833 -1497 L1078 -1143 " />
<glyph unicode="&#xdc;" horiz-adv-x="1729" d="M1429 -991 L1429 -991 Q1429 -995 1426 -997 Q1424 -1000 1420 -1000 L1238 -1000 Q1234 -1000 1231 -997 Q1229 -995 1229 -991 L1229 -257 Q1229 -221 1204 -196 Q1179 -171 1143 -171 L286 -171 Q251 -171 225 -196 Q200 -221 200 -257 L200 -991 Q200 -995 197 -997 Q195 -1000 192 -1000 L9 -1000 Q5 -1000 2 -997 Q0 -995 0 -991 L0 -285 Q0 -167 84 -83 Q168 0 286 0 L1143 0 Q1262 0 1345 -83 Q1429 -167 1429 -285 L1429 -991 M564 -1172 L564 -1172 Q567 -1172 569 -1174 Q572 -1177 572 -1180 L572 -1392 Q572 -1395 569 -1397 Q567 -1400 564 -1400 L352 -1400 Q349 -1400 346 -1397 Q344 -1395 344 -1392 L344 -1180 Q344 -1177 346 -1174 Q349 -1172 352 -1172 L564 -1172 M1078 -1172 L1078 -1172 Q1082 -1172 1084 -1174 Q1087 -1177 1087 -1180 L1087 -1392 Q1087 -1395 1084 -1397 Q1082 -1400 1078 -1400 L867 -1400 Q863 -1400 860 -1397 Q858 -1395 858 -1392 L858 -1180 Q858 -1177 860 -1174 Q863 -1172 867 -1172 L1078 -1172 " />
<glyph unicode="&#xdd;" horiz-adv-x="1752" d="M1452 -992 L1452 -992 Q1452 -995 1449 -997 Q1447 -1000 1443 -1000 L1260 -1000 Q1257 -1000 1254 -997 Q1252 -995 1252 -992 L1252 -543 L489 -543 Q440 -543 412 -592 L220 -995 Q217 -1000 212 -1000 L9 -1000 Q5 -1000 2 -996 Q0 -993 1 -988 L239 -490 Q272 -422 334 -382 Q397 -343 471 -343 L1252 -343 L1252 -9 Q1252 -5 1254 -2 Q1257 0 1260 0 L1443 0 Q1447 0 1449 -2 Q1452 -5 1452 -9 L1452 -992 M826 -1496 L553 -1142 Q550 -1137 552 -1132 Q555 -1128 560 -1128 L739 -1128 Q742 -1128 745 -1131 L1099 -1485 Q1103 -1489 1101 -1494 Q1099 -1500 1093 -1500 L832 -1500 Q828 -1500 826 -1496 L826 -1496 " />
<glyph unicode="&#xde;" horiz-adv-x="1728" d="M1143 -829 L1143 -829 Q1261 -829 1344 -745 Q1428 -661 1428 -543 L1428 -457 Q1428 -339 1344 -255 Q1261 -171 1143 -171 L200 -171 L200 -9 Q200 -5 197 -2 Q195 0 191 0 L8 0 Q5 0 2 -2 Q0 -5 0 -9 L0 -991 Q0 -995 2 -997 Q5 -1000 8 -1000 L191 -1000 Q195 -1000 197 -997 Q200 -995 200 -991 L200 -829 L1143 -829 M1143 -343 L1143 -343 Q1178 -343 1203 -368 Q1228 -393 1228 -429 L1228 -571 Q1228 -607 1203 -632 Q1178 -657 1143 -657 L200 -657 L200 -343 L1143 -343 " />
<glyph unicode="&#xdf;" horiz-adv-x="1728" d="M1202 -580 L1202 -580 Q1301 -557 1364 -480 Q1428 -403 1428 -300 L1428 -286 Q1428 -167 1344 -83 Q1261 0 1143 0 L408 0 Q405 0 402 -2 Q400 -5 400 -9 L400 -163 Q400 -166 402 -168 Q405 -171 408 -171 L1143 -171 Q1178 -171 1203 -196 Q1228 -222 1228 -257 L1228 -329 Q1228 -364 1203 -389 Q1178 -414 1143 -414 L943 -414 L408 -414 Q405 -414 402 -416 Q400 -419 400 -423 L400 -577 Q400 -581 402 -583 Q405 -586 408 -586 L943 -586 Q978 -586 1003 -611 Q1028 -636 1028 -671 L1028 -743 Q1028 -778 1003 -803 Q978 -829 943 -829 L286 -829 Q250 -829 225 -803 Q200 -778 200 -743 L200 191 Q200 195 197 197 Q195 200 191 200 L8 200 Q5 200 2 197 Q0 195 0 191 L0 -714 Q0 -833 83 -916 Q167 -1000 286 -1000 L943 -1000 Q1061 -1000 1144 -916 Q1228 -833 1228 -714 L1228 -700 Q1228 -635 1202 -580 " />
<glyph unicode="&#xe0;" horiz-adv-x="1729" d="M0 -715 L0 -715 Q0 -833 83 -916 Q167 -1000 286 -1000 L1143 -1000 Q1261 -1000 1345 -916 Q1429 -833 1429 -715 L1429 -9 Q1429 -5 1426 -2 Q1424 0 1420 0 L1237 0 Q1234 0 1231 -2 Q1229 -5 1229 -9 L1229 -329 L200 -329 L200 -9 Q200 -5 197 -2 Q195 0 192 0 L9 0 Q5 0 2 -2 Q0 -5 0 -9 L0 -715 M1229 -500 L1229 -500 L1229 -743 Q1229 -779 1203 -804 Q1178 -829 1143 -829 L286 -829 Q250 -829 225 -804 Q200 -779 200 -743 L200 -500 L1229 -500 M677 -1496 L677 -1496 Q675 -1500 671 -1500 L410 -1500 Q404 -1500 402 -1494 Q400 -1489 404 -1485 L758 -1131 Q761 -1128 764 -1128 L943 -1128 Q949 -1128 951 -1132 Q953 -1137 950 -1142 L677 -1496 " />
<glyph unicode="&#xe1;" horiz-adv-x="1729" d="M0 -715 L0 -715 Q0 -833 83 -916 Q167 -1000 286 -1000 L1143 -1000 Q1261 -1000 1345 -916 Q1429 -833 1429 -715 L1429 -9 Q1429 -5 1426 -2 Q1424 0 1420 0 L1237 0 Q1234 0 1231 -2 Q1229 -5 1229 -9 L1229 -329 L200 -329 L200 -9 Q200 -5 197 -2 Q195 0 192 0 L9 0 Q5 0 2 -2 Q0 -5 0 -9 L0 -715 M1229 -500 L1229 -500 L1229 -743 Q1229 -779 1203 -804 Q1178 -829 1143 -829 L286 -829 Q250 -829 225 -804 Q200 -779 200 -743 L200 -500 L1229 -500 M825 -1497 L552 -1143 Q549 -1138 551 -1133 Q554 -1129 559 -1129 L738 -1129 Q741 -1129 744 -1132 L1098 -1486 Q1102 -1490 1100 -1495 Q1098 -1501 1092 -1501 L831 -1501 Q827 -1501 825 -1497 L825 -1497 " />
<glyph unicode="&#xe2;" horiz-adv-x="1729" d="M0 -715 L0 -715 Q0 -833 83 -916 Q167 -1000 286 -1000 L1143 -1000 Q1261 -1000 1345 -916 Q1429 -833 1429 -715 L1429 -9 Q1429 -5 1426 -2 Q1424 0 1420 0 L1237 0 Q1234 0 1231 -2 Q1229 -5 1229 -9 L1229 -329 L200 -329 L200 -9 Q200 -5 197 -2 Q195 0 192 0 L9 0 Q5 0 2 -2 Q0 -5 0 -9 L0 -715 M1229 -500 L1229 -500 L1229 -743 Q1229 -779 1203 -804 Q1178 -829 1143 -829 L286 -829 Q250 -829 225 -804 Q200 -779 200 -743 L200 -500 L1229 -500 M1077 -1142 L1077 -1142 Q1080 -1137 1077 -1132 Q1075 -1128 1070 -1128 L919 -1128 Q915 -1128 913 -1131 L715 -1365 L518 -1131 Q515 -1128 511 -1128 L360 -1128 Q355 -1128 352 -1132 Q350 -1137 353 -1142 L598 -1496 Q601 -1500 605 -1500 L825 -1500 Q829 -1500 832 -1496 L1077 -1142 " />
<glyph unicode="&#xe3;" horiz-adv-x="1729" d="M0 -715 L0 -715 Q0 -833 83 -916 Q167 -1000 286 -1000 L1143 -1000 Q1261 -1000 1345 -916 Q1429 -833 1429 -715 L1429 -9 Q1429 -5 1426 -2 Q1424 0 1420 0 L1237 0 Q1234 0 1231 -2 Q1229 -5 1229 -9 L1229 -329 L200 -329 L200 -9 Q200 -5 197 -2 Q195 0 192 0 L9 0 Q5 0 2 -2 Q0 -5 0 -9 L0 -715 M1229 -500 L1229 -500 L1229 -743 Q1229 -779 1203 -804 Q1178 -829 1143 -829 L286 -829 Q250 -829 225 -804 Q200 -779 200 -743 L200 -500 L1229 -500 M929 -1392 L929 -1392 Q929 -1395 931 -1397 Q934 -1400 937 -1400 L1063 -1400 Q1067 -1400 1069 -1397 Q1072 -1395 1072 -1391 L1072 -1366 Q1072 -1271 1000 -1212 Q928 -1153 831 -1170 L604 -1217 Q562 -1225 531 -1199 Q501 -1174 501 -1134 L501 -1134 Q501 -1130 498 -1128 Q496 -1126 493 -1126 L366 -1126 Q363 -1126 360 -1128 Q358 -1131 358 -1134 L358 -1160 Q358 -1255 430 -1313 Q502 -1372 599 -1356 L826 -1308 Q867 -1301 898 -1326 Q929 -1351 929 -1392 L929 -1392 " />
<glyph unicode="&#xe4;" horiz-adv-x="1729" d="M0 -715 L0 -715 Q0 -833 83 -916 Q167 -1000 286 -1000 L1143 -1000 Q1261 -1000 1345 -916 Q1429 -833 1429 -715 L1429 -9 Q1429 -5 1426 -2 Q1424 0 1420 0 L1237 0 Q1234 0 1231 -2 Q1229 -5 1229 -9 L1229 -329 L200 -329 L200 -9 Q200 -5 197 -2 Q195 0 192 0 L9 0 Q5 0 2 -2 Q0 -5 0 -9 L0 -715 M1229 -500 L1229 -500 L1229 -743 Q1229 -779 1203 -804 Q1178 -829 1143 -829 L286 -829 Q250 -829 225 -804 Q200 -779 200 -743 L200 -500 L1229 -500 M563 -1172 L563 -1172 Q566 -1172 568 -1174 Q571 -1177 571 -1180 L571 -1392 Q571 -1395 568 -1397 Q566 -1400 563 -1400 L351 -1400 Q348 -1400 345 -1397 Q343 -1395 343 -1392 L343 -1180 Q343 -1177 345 -1174 Q348 -1172 351 -1172 L563 -1172 M1077 -1172 L1077 -1172 Q1081 -1172 1083 -1174 Q1086 -1177 1086 -1180 L1086 -1392 Q1086 -1395 1083 -1397 Q1081 -1400 1077 -1400 L866 -1400 Q862 -1400 859 -1397 Q857 -1395 857 -1392 L857 -1180 Q857 -1177 859 -1174 Q862 -1172 866 -1172 L1077 -1172 " />
<glyph unicode="&#xe5;" horiz-adv-x="1729" d="M0 -715 L0 -715 Q0 -833 83 -916 Q167 -1000 286 -1000 L1143 -1000 Q1261 -1000 1345 -916 Q1429 -833 1429 -715 L1429 -9 Q1429 -5 1426 -2 Q1424 0 1420 0 L1237 0 Q1234 0 1231 -2 Q1229 -5 1229 -9 L1229 -329 L200 -329 L200 -9 Q200 -5 197 -2 Q195 0 192 0 L9 0 Q5 0 2 -2 Q0 -5 0 -9 L0 -715 M1229 -500 L1229 -500 L1229 -743 Q1229 -779 1203 -804 Q1178 -829 1143 -829 L286 -829 Q250 -829 225 -804 Q200 -779 200 -743 L200 -500 L1229 -500 M714 -1206 L714 -1206 Q673 -1206 643 -1177 Q614 -1148 614 -1106 Q614 -1065 643 -1035 Q673 -1006 714 -1006 Q755 -1006 784 -1035 Q814 -1065 814 -1106 Q814 -1148 784 -1177 Q755 -1206 714 -1206 M714 -1321 L714 -1321 L714 -1321 Q803 -1321 865 -1258 Q928 -1195 928 -1106 Q928 -1018 865 -955 Q803 -892 714 -892 Q625 -892 562 -955 Q500 -1018 500 -1106 Q500 -1195 562 -1258 Q625 -1321 714 -1321 " />
<glyph unicode="&#xe6;" horiz-adv-x="2529" d="M2229 -837 L2229 -837 Q2229 -833 2226 -830 Q2224 -828 2220 -828 L1286 -828 L1286 -586 L2078 -586 Q2081 -586 2083 -583 Q2086 -580 2086 -577 L2086 -423 Q2086 -419 2083 -416 Q2081 -414 2078 -414 L1286 -414 L1286 -257 Q1286 -221 1311 -196 Q1336 -171 1372 -171 L2220 -171 Q2224 -171 2226 -168 Q2229 -166 2229 -163 L2229 -8 Q2229 -5 2226 -2 Q2224 0 2220 0 L1343 0 Q1237 0 1161 -75 Q1086 -150 1086 -257 L1086 -328 L200 -328 L200 -8 Q200 -5 197 -2 Q195 0 192 0 L9 0 Q5 0 2 -2 Q0 -5 0 -8 L0 -714 Q0 -832 84 -916 Q168 -1000 286 -1000 L2220 -1000 Q2224 -1000 2226 -997 Q2229 -995 2229 -991 L2229 -837 M1086 -500 L1086 -500 L1086 -828 L286 -828 Q251 -828 225 -803 Q200 -778 200 -743 L200 -500 L1086 -500 " />
<glyph unicode="&#xe7;" horiz-adv-x="1729" d="M286 -171 L286 -171 Q250 -171 225 -196 Q200 -222 200 -257 L200 -743 Q200 -778 225 -803 Q250 -829 286 -829 L1420 -829 Q1424 -829 1426 -831 Q1429 -834 1429 -837 L1429 -991 Q1429 -995 1426 -997 Q1424 -1000 1420 -1000 L286 -1000 Q167 -1000 83 -916 Q0 -833 0 -714 L0 -286 Q0 -167 83 -83 Q167 0 286 0 L1420 0 Q1424 0 1426 -2 Q1429 -5 1429 -9 L1429 -163 Q1429 -166 1426 -168 Q1424 -171 1420 -171 L286 -171 M828 146 L828 146 Q882 146 919 183 Q957 221 957 275 L957 403 Q957 456 919 494 Q882 532 828 532 L480 532 Q476 532 473 529 Q471 527 471 523 L471 403 Q471 400 473 397 Q476 395 480 395 L811 395 L811 283 L555 283 Q551 283 548 279 Q546 276 547 272 L641 6 Q643 0 649 0 L776 0 Q780 0 782 4 Q785 8 784 12 L731 146 L828 146 " />
<glyph unicode="&#xe8;" horiz-adv-x="1729" d="M200 -743 L200 -743 Q200 -778 225 -803 Q250 -829 286 -829 L1420 -829 Q1424 -829 1426 -831 Q1429 -834 1429 -837 L1429 -991 Q1429 -995 1426 -997 Q1424 -1000 1420 -1000 L286 -1000 Q167 -1000 83 -916 Q0 -833 0 -714 L0 -286 Q0 -167 83 -83 Q167 0 286 0 L1420 0 Q1424 0 1426 -2 Q1429 -5 1429 -9 L1429 -163 Q1429 -166 1426 -168 Q1424 -171 1420 -171 L286 -171 Q250 -171 225 -196 Q200 -222 200 -257 L200 -414 L1277 -414 Q1281 -414 1283 -416 Q1286 -419 1286 -423 L1286 -577 Q1286 -581 1283 -583 Q1281 -586 1277 -586 L200 -586 L200 -743 M677 -1496 L677 -1496 Q675 -1500 671 -1500 L410 -1500 Q404 -1500 402 -1494 Q400 -1489 404 -1485 L758 -1131 Q761 -1128 764 -1128 L943 -1128 Q949 -1128 951 -1132 Q953 -1137 950 -1142 L677 -1496 " />
<glyph unicode="&#xe9;" horiz-adv-x="1729" d="M200 -743 L200 -743 Q200 -778 225 -803 Q250 -829 286 -829 L1420 -829 Q1424 -829 1426 -831 Q1429 -834 1429 -837 L1429 -991 Q1429 -995 1426 -997 Q1424 -1000 1420 -1000 L286 -1000 Q167 -1000 83 -916 Q0 -833 0 -714 L0 -286 Q0 -167 83 -83 Q167 0 286 0 L1420 0 Q1424 0 1426 -2 Q1429 -5 1429 -9 L1429 -163 Q1429 -166 1426 -168 Q1424 -171 1420 -171 L286 -171 Q250 -171 225 -196 Q200 -222 200 -257 L200 -414 L1277 -414 Q1281 -414 1283 -416 Q1286 -419 1286 -423 L1286 -577 Q1286 -581 1283 -583 Q1281 -586 1277 -586 L200 -586 L200 -743 M826 -1496 L553 -1142 Q550 -1137 552 -1132 Q555 -1128 560 -1128 L739 -1128 Q742 -1128 745 -1131 L1099 -1485 Q1103 -1489 1101 -1494 Q1099 -1500 1093 -1500 L832 -1500 Q828 -1500 826 -1496 L826 -1496 " />
<glyph unicode="&#xea;" horiz-adv-x="1729" d="M200 -743 L200 -743 Q200 -778 225 -803 Q250 -829 286 -829 L1420 -829 Q1424 -829 1426 -831 Q1429 -834 1429 -837 L1429 -991 Q1429 -995 1426 -997 Q1424 -1000 1420 -1000 L286 -1000 Q167 -1000 83 -916 Q0 -833 0 -714 L0 -286 Q0 -167 83 -83 Q167 0 286 0 L1420 0 Q1424 0 1426 -2 Q1429 -5 1429 -9 L1429 -163 Q1429 -166 1426 -168 Q1424 -171 1420 -171 L286 -171 Q250 -171 225 -196 Q200 -222 200 -257 L200 -414 L1277 -414 Q1281 -414 1283 -416 Q1286 -419 1286 -423 L1286 -577 Q1286 -581 1283 -583 Q1281 -586 1277 -586 L200 -586 L200 -743 M1077 -1142 L1077 -1142 Q1080 -1137 1077 -1132 Q1075 -1128 1070 -1128 L919 -1128 Q915 -1128 913 -1131 L715 -1365 L518 -1131 Q515 -1128 511 -1128 L360 -1128 Q355 -1128 352 -1132 Q350 -1137 353 -1142 L598 -1496 Q601 -1500 605 -1500 L825 -1500 Q829 -1500 832 -1496 L1077 -1142 " />
<glyph unicode="&#xeb;" horiz-adv-x="1729" d="M200 -743 L200 -743 Q200 -778 225 -803 Q250 -829 286 -829 L1420 -829 Q1424 -829 1426 -831 Q1429 -834 1429 -837 L1429 -991 Q1429 -995 1426 -997 Q1424 -1000 1420 -1000 L286 -1000 Q167 -1000 83 -916 Q0 -833 0 -714 L0 -286 Q0 -167 83 -83 Q167 0 286 0 L1420 0 Q1424 0 1426 -2 Q1429 -5 1429 -9 L1429 -163 Q1429 -166 1426 -168 Q1424 -171 1420 -171 L286 -171 Q250 -171 225 -196 Q200 -222 200 -257 L200 -414 L1277 -414 Q1281 -414 1283 -416 Q1286 -419 1286 -423 L1286 -577 Q1286 -581 1283 -583 Q1281 -586 1277 -586 L200 -586 L200 -743 M563 -1172 L563 -1172 Q566 -1172 568 -1174 Q571 -1177 571 -1180 L571 -1392 Q571 -1395 568 -1397 Q566 -1400 563 -1400 L351 -1400 Q348 -1400 345 -1397 Q343 -1395 343 -1392 L343 -1180 Q343 -1177 345 -1174 Q348 -1172 351 -1172 L563 -1172 M1077 -1172 L1077 -1172 Q1081 -1172 1083 -1174 Q1086 -1177 1086 -1180 L1086 -1392 Q1086 -1395 1083 -1397 Q1081 -1400 1077 -1400 L866 -1400 Q862 -1400 859 -1397 Q857 -1395 857 -1392 L857 -1180 Q857 -1177 859 -1174 Q862 -1172 866 -1172 L1077 -1172 " />
<glyph unicode="&#xec;" horiz-adv-x="500" d="M200 -991 L200 -991 Q200 -995 197 -997 Q195 -1000 191 -1000 L8 -1000 Q5 -1000 2 -997 Q0 -995 0 -991 L0 -8 Q0 -5 2 -2 Q5 0 8 0 L191 0 Q195 0 197 -2 Q200 -5 200 -8 L200 -991 M-73 -1496 L-73 -1496 Q-76 -1500 -80 -1500 L-341 -1500 Q-346 -1500 -348 -1494 Q-351 -1489 -347 -1485 L8 -1131 Q10 -1128 14 -1128 L193 -1128 Q198 -1128 200 -1132 Q203 -1137 200 -1142 L-73 -1496 " />
<glyph unicode="&#xed;" horiz-adv-x="500" d="M200 -991 L200 -991 Q200 -995 197 -997 Q195 -1000 191 -1000 L8 -1000 Q5 -1000 2 -997 Q0 -995 0 -991 L0 -8 Q0 -5 2 -2 Q5 0 8 0 L191 0 Q195 0 197 -2 Q200 -5 200 -8 L200 -991 M275 -1497 L3 -1143 Q0 -1138 2 -1133 Q4 -1129 10 -1129 L189 -1129 Q192 -1129 195 -1131 L549 -1486 Q553 -1490 551 -1495 Q549 -1500 543 -1500 L282 -1500 Q278 -1500 275 -1497 L275 -1497 " />
<glyph unicode="&#xee;" horiz-adv-x="500" d="M200 -991 L200 -991 Q200 -995 197 -997 Q195 -1000 192 -1000 L9 -1000 Q5 -1000 2 -997 Q0 -995 0 -991 L0 -8 Q0 -5 2 -2 Q5 0 9 0 L192 0 Q195 0 197 -2 Q200 -5 200 -8 L200 -991 M462 -1142 L462 -1142 Q465 -1137 462 -1132 Q460 -1128 455 -1128 L304 -1128 Q300 -1128 298 -1131 L100 -1365 L-97 -1131 Q-100 -1128 -104 -1128 L-255 -1128 Q-260 -1128 -262 -1132 Q-265 -1137 -262 -1142 L-17 -1496 Q-14 -1500 -10 -1500 L210 -1500 Q214 -1500 217 -1496 L462 -1142 " />
<glyph unicode="&#xef;" horiz-adv-x="500" d="M198 -991 L198 -991 Q198 -995 195 -997 Q193 -1000 190 -1000 L7 -1000 Q3 -1000 0 -997 Q-2 -995 -2 -991 L-2 -8 Q-2 -5 0 -2 Q3 0 7 0 L190 0 Q193 0 195 -2 Q198 -5 198 -8 L198 -991 M-53 -1172 L-53 -1172 Q-50 -1172 -47 -1174 Q-45 -1177 -45 -1180 L-45 -1392 Q-45 -1395 -47 -1397 Q-50 -1400 -53 -1400 L-265 -1400 Q-268 -1400 -270 -1397 Q-273 -1395 -273 -1392 L-273 -1180 Q-273 -1177 -270 -1174 Q-268 -1172 -265 -1172 L-53 -1172 M461 -1172 L461 -1172 Q465 -1172 467 -1174 Q470 -1177 470 -1180 L470 -1392 Q470 -1395 467 -1397 Q465 -1400 461 -1400 L250 -1400 Q246 -1400 243 -1397 Q241 -1395 241 -1392 L241 -1180 Q241 -1177 243 -1174 Q246 -1172 250 -1172 L461 -1172 " />
<glyph unicode="&#xf0;" horiz-adv-x="1929" d="M200 -991 L200 -991 Q200 -995 202 -997 Q205 -1000 209 -1000 L1343 -1000 Q1461 -1000 1545 -916 Q1629 -832 1629 -714 L1629 -286 Q1629 -167 1545 -83 Q1461 0 1343 0 L209 0 Q205 0 202 -2 Q200 -5 200 -8 L200 -414 L9 -414 Q5 -414 2 -416 Q0 -419 0 -423 L0 -577 Q0 -580 2 -583 Q5 -586 9 -586 L200 -586 L200 -991 M1343 -171 L1343 -171 Q1379 -171 1404 -196 Q1429 -221 1429 -257 L1429 -743 Q1429 -778 1404 -803 Q1379 -828 1343 -828 L400 -828 L400 -586 L849 -586 Q852 -586 854 -583 Q857 -580 857 -577 L857 -423 Q857 -419 854 -416 Q852 -414 849 -414 L400 -414 L400 -171 L1343 -171 " />
<glyph unicode="&#xf1;" horiz-adv-x="1729" d="M0 -8 L0 -8 Q0 -5 2 -2 Q5 0 9 0 L192 0 Q195 0 197 -2 Q200 -5 200 -8 L200 -742 Q200 -778 225 -803 Q251 -828 286 -828 L1143 -828 Q1179 -828 1204 -803 Q1229 -778 1229 -742 L1229 -8 Q1229 -5 1231 -2 Q1234 0 1238 0 L1420 0 Q1424 0 1426 -2 Q1429 -5 1429 -8 L1429 -714 Q1429 -832 1345 -916 Q1262 -1000 1143 -1000 L286 -1000 Q168 -1000 84 -916 Q0 -832 0 -714 L0 -8 M929 -1392 L929 -1392 Q929 -1395 931 -1397 Q934 -1400 937 -1400 L1063 -1400 Q1067 -1400 1069 -1397 Q1072 -1395 1072 -1391 L1072 -1366 Q1072 -1271 1000 -1212 Q928 -1153 831 -1170 L604 -1217 Q562 -1225 531 -1199 Q501 -1174 501 -1134 L501 -1134 Q501 -1130 498 -1128 Q496 -1126 493 -1126 L366 -1126 Q363 -1126 360 -1128 Q358 -1131 358 -1134 L358 -1160 Q358 -1255 430 -1313 Q502 -1372 599 -1356 L826 -1308 Q867 -1301 898 -1326 Q929 -1351 929 -1392 L929 -1392 " />
<glyph unicode="&#xf2;" horiz-adv-x="1729" d="M1143 -1000 L1143 -1000 Q1262 -1000 1345 -916 Q1429 -833 1429 -714 L1429 -286 Q1429 -167 1345 -83 Q1262 0 1143 0 L286 0 Q168 0 84 -83 Q0 -167 0 -286 L0 -714 Q0 -833 84 -916 Q168 -1000 286 -1000 L1143 -1000 M1229 -743 L1229 -743 Q1229 -778 1204 -803 Q1179 -829 1143 -829 L286 -829 Q251 -829 225 -803 Q200 -778 200 -743 L200 -257 Q200 -222 225 -196 Q251 -171 286 -171 L1143 -171 Q1179 -171 1204 -196 Q1229 -222 1229 -257 L1229 -743 M677 -1497 L677 -1497 Q675 -1501 671 -1501 L410 -1501 Q404 -1501 402 -1495 Q400 -1490 404 -1486 L758 -1132 Q761 -1129 764 -1129 L943 -1129 Q949 -1129 951 -1133 Q953 -1138 950 -1143 L677 -1497 " />
<glyph unicode="&#xf3;" horiz-adv-x="1729" d="M1143 -1000 L1143 -1000 Q1262 -1000 1345 -916 Q1429 -833 1429 -714 L1429 -286 Q1429 -167 1345 -83 Q1262 0 1143 0 L286 0 Q168 0 84 -83 Q0 -167 0 -286 L0 -714 Q0 -833 84 -916 Q168 -1000 286 -1000 L1143 -1000 M1229 -743 L1229 -743 Q1229 -778 1204 -803 Q1179 -829 1143 -829 L286 -829 Q251 -829 225 -803 Q200 -778 200 -743 L200 -257 Q200 -222 225 -196 Q251 -171 286 -171 L1143 -171 Q1179 -171 1204 -196 Q1229 -222 1229 -257 L1229 -743 M825 -1497 L552 -1143 Q549 -1138 551 -1133 Q554 -1129 559 -1129 L738 -1129 Q741 -1129 744 -1132 L1098 -1486 Q1102 -1490 1100 -1495 Q1098 -1501 1092 -1501 L831 -1501 Q827 -1501 825 -1497 L825 -1497 " />
<glyph unicode="&#xf4;" horiz-adv-x="1729" d="M1143 -1000 L1143 -1000 Q1262 -1000 1345 -916 Q1429 -833 1429 -714 L1429 -286 Q1429 -167 1345 -83 Q1262 0 1143 0 L286 0 Q168 0 84 -83 Q0 -167 0 -286 L0 -714 Q0 -833 84 -916 Q168 -1000 286 -1000 L1143 -1000 M1229 -743 L1229 -743 Q1229 -778 1204 -803 Q1179 -829 1143 -829 L286 -829 Q251 -829 225 -803 Q200 -778 200 -743 L200 -257 Q200 -222 225 -196 Q251 -171 286 -171 L1143 -171 Q1179 -171 1204 -196 Q1229 -222 1229 -257 L1229 -743 M1077 -1142 L1077 -1142 Q1080 -1137 1077 -1132 Q1075 -1128 1070 -1128 L919 -1128 Q915 -1128 913 -1131 L715 -1365 L518 -1131 Q515 -1128 511 -1128 L360 -1128 Q355 -1128 352 -1132 Q350 -1137 353 -1142 L598 -1496 Q601 -1500 605 -1500 L825 -1500 Q829 -1500 832 -1496 L1077 -1142 " />
<glyph unicode="&#xf5;" horiz-adv-x="1729" d="M1143 -1000 L1143 -1000 Q1262 -1000 1345 -916 Q1429 -833 1429 -714 L1429 -286 Q1429 -167 1345 -83 Q1262 0 1143 0 L286 0 Q168 0 84 -83 Q0 -167 0 -286 L0 -714 Q0 -833 84 -916 Q168 -1000 286 -1000 L1143 -1000 M1229 -743 L1229 -743 Q1229 -778 1204 -803 Q1179 -829 1143 -829 L286 -829 Q251 -829 225 -803 Q200 -778 200 -743 L200 -257 Q200 -222 225 -196 Q251 -171 286 -171 L1143 -171 Q1179 -171 1204 -196 Q1229 -222 1229 -257 L1229 -743 M929 -1392 L929 -1392 Q929 -1395 931 -1397 Q934 -1400 937 -1400 L1063 -1400 Q1067 -1400 1069 -1397 Q1072 -1395 1072 -1391 L1072 -1366 Q1072 -1271 1000 -1212 Q928 -1153 831 -1170 L604 -1217 Q562 -1225 531 -1199 Q501 -1174 501 -1134 L501 -1134 Q501 -1130 498 -1128 Q496 -1126 493 -1126 L366 -1126 Q363 -1126 360 -1128 Q358 -1131 358 -1134 L358 -1160 Q358 -1255 430 -1313 Q502 -1372 599 -1356 L826 -1308 Q867 -1301 898 -1326 Q929 -1351 929 -1392 L929 -1392 " />
<glyph unicode="&#xf6;" horiz-adv-x="1729" d="M1143 -1000 L1143 -1000 Q1262 -1000 1345 -916 Q1429 -833 1429 -714 L1429 -286 Q1429 -167 1345 -83 Q1262 0 1143 0 L286 0 Q168 0 84 -83 Q0 -167 0 -286 L0 -714 Q0 -833 84 -916 Q168 -1000 286 -1000 L1143 -1000 M1229 -743 L1229 -743 Q1229 -778 1204 -803 Q1179 -829 1143 -829 L286 -829 Q251 -829 225 -803 Q200 -778 200 -743 L200 -257 Q200 -222 225 -196 Q251 -171 286 -171 L1143 -171 Q1179 -171 1204 -196 Q1229 -222 1229 -257 L1229 -743 M563 -1172 L563 -1172 Q566 -1172 568 -1174 Q571 -1177 571 -1180 L571 -1392 Q571 -1395 568 -1397 Q566 -1400 563 -1400 L351 -1400 Q348 -1400 345 -1397 Q343 -1395 343 -1392 L343 -1180 Q343 -1177 345 -1174 Q348 -1172 351 -1172 L563 -1172 M1077 -1172 L1077 -1172 Q1081 -1172 1083 -1174 Q1086 -1177 1086 -1180 L1086 -1392 Q1086 -1395 1083 -1397 Q1081 -1400 1077 -1400 L866 -1400 Q862 -1400 859 -1397 Q857 -1395 857 -1392 L857 -1180 Q857 -1177 859 -1174 Q862 -1172 866 -1172 L1077 -1172 " />
<glyph unicode="&#xf7;" horiz-adv-x="1072" d="M463 -317 L463 -317 L309 -317 Q305 -317 302 -314 Q300 -312 300 -308 L300 -149 Q300 -148 303 -146 Q306 -145 309 -145 L463 -145 Q467 -145 469 -146 Q472 -148 472 -149 L472 -308 Q472 -312 469 -314 Q467 -317 463 -317 M472 -854 L472 -854 Q472 -856 469 -858 Q467 -860 463 -860 L309 -860 Q306 -860 303 -858 Q300 -856 300 -854 L300 -697 Q300 -693 302 -690 Q305 -688 309 -688 L463 -688 Q467 -688 469 -690 Q472 -693 472 -697 L472 -854 M772 -580 L772 -580 Q772 -583 770 -585 Q768 -588 766 -588 L7 -588 Q4 -588 2 -585 Q0 -583 0 -580 L0 -425 Q0 -422 2 -419 Q4 -417 7 -417 L766 -417 Q768 -417 770 -419 Q772 -422 772 -425 L772 -580 " />
<glyph unicode="&#xf8;" horiz-adv-x="1729" d="M1143 -1000 L1143 -1000 Q1261 -1000 1345 -916 Q1429 -832 1429 -714 L1429 -286 Q1429 -167 1345 -83 Q1261 0 1143 0 L286 0 Q167 0 83 -83 Q0 -167 0 -286 L0 -714 Q0 -832 83 -916 Q167 -1000 286 -1000 L1143 -1000 M286 -171 L286 -171 L427 -171 L802 -828 L286 -828 Q250 -828 225 -803 Q200 -778 200 -743 L200 -257 Q200 -221 225 -196 Q250 -171 286 -171 M1229 -257 L1229 -257 L1229 -743 Q1229 -778 1203 -803 Q1178 -828 1143 -828 L1002 -828 L627 -171 L1143 -171 Q1178 -171 1203 -196 Q1229 -221 1229 -257 " />
<glyph unicode="&#xf9;" horiz-adv-x="1729" d="M1429 -991 L1429 -991 Q1429 -995 1426 -997 Q1424 -1000 1420 -1000 L1238 -1000 Q1234 -1000 1231 -997 Q1229 -995 1229 -991 L1229 -257 Q1229 -221 1204 -196 Q1179 -171 1143 -171 L286 -171 Q251 -171 225 -196 Q200 -221 200 -257 L200 -991 Q200 -995 197 -997 Q195 -1000 192 -1000 L9 -1000 Q5 -1000 2 -997 Q0 -995 0 -991 L0 -285 Q0 -167 84 -83 Q168 0 286 0 L1143 0 Q1262 0 1345 -83 Q1429 -167 1429 -285 L1429 -991 M677 -1496 L677 -1496 Q675 -1500 671 -1500 L410 -1500 Q404 -1500 402 -1494 Q400 -1489 404 -1485 L758 -1131 Q761 -1128 764 -1128 L943 -1128 Q949 -1128 951 -1132 Q953 -1137 950 -1142 L677 -1496 " />
<glyph unicode="&#xfa;" horiz-adv-x="1729" d="M1429 -991 L1429 -991 Q1429 -995 1426 -997 Q1424 -1000 1420 -1000 L1238 -1000 Q1234 -1000 1231 -997 Q1229 -995 1229 -991 L1229 -257 Q1229 -221 1204 -196 Q1179 -171 1143 -171 L286 -171 Q251 -171 225 -196 Q200 -221 200 -257 L200 -991 Q200 -995 197 -997 Q195 -1000 192 -1000 L9 -1000 Q5 -1000 2 -997 Q0 -995 0 -991 L0 -285 Q0 -167 84 -83 Q168 0 286 0 L1143 0 Q1262 0 1345 -83 Q1429 -167 1429 -285 L1429 -991 M825 -1496 L552 -1142 Q549 -1137 551 -1132 Q554 -1128 559 -1128 L738 -1128 Q741 -1128 744 -1131 L1098 -1485 Q1102 -1489 1100 -1494 Q1098 -1500 1092 -1500 L831 -1500 Q827 -1500 825 -1496 L825 -1496 " />
<glyph unicode="&#xfb;" horiz-adv-x="1729" d="M1429 -991 L1429 -991 Q1429 -995 1426 -997 Q1424 -1000 1420 -1000 L1238 -1000 Q1234 -1000 1231 -997 Q1229 -995 1229 -991 L1229 -257 Q1229 -221 1204 -196 Q1179 -171 1143 -171 L286 -171 Q251 -171 225 -196 Q200 -221 200 -257 L200 -991 Q200 -995 197 -997 Q195 -1000 192 -1000 L9 -1000 Q5 -1000 2 -997 Q0 -995 0 -991 L0 -285 Q0 -167 84 -83 Q168 0 286 0 L1143 0 Q1262 0 1345 -83 Q1429 -167 1429 -285 L1429 -991 M1078 -1142 L1078 -1142 Q1081 -1137 1078 -1132 Q1076 -1128 1071 -1128 L920 -1128 Q916 -1128 914 -1131 L716 -1365 L519 -1131 Q516 -1128 512 -1128 L361 -1128 Q356 -1128 353 -1132 Q351 -1137 354 -1142 L599 -1496 Q602 -1500 606 -1500 L826 -1500 Q830 -1500 833 -1496 L1078 -1142 " />
<glyph unicode="&#xfc;" horiz-adv-x="1729" d="M1429 -991 L1429 -991 Q1429 -995 1426 -997 Q1424 -1000 1420 -1000 L1238 -1000 Q1234 -1000 1231 -997 Q1229 -995 1229 -991 L1229 -257 Q1229 -221 1204 -196 Q1179 -171 1143 -171 L286 -171 Q251 -171 225 -196 Q200 -221 200 -257 L200 -991 Q200 -995 197 -997 Q195 -1000 192 -1000 L9 -1000 Q5 -1000 2 -997 Q0 -995 0 -991 L0 -285 Q0 -167 84 -83 Q168 0 286 0 L1143 0 Q1262 0 1345 -83 Q1429 -167 1429 -285 L1429 -991 M564 -1172 L564 -1172 Q567 -1172 569 -1174 Q572 -1177 572 -1180 L572 -1392 Q572 -1395 569 -1397 Q567 -1400 564 -1400 L352 -1400 Q349 -1400 346 -1397 Q344 -1395 344 -1392 L344 -1180 Q344 -1177 346 -1174 Q349 -1172 352 -1172 L564 -1172 M1078 -1172 L1078 -1172 Q1082 -1172 1084 -1174 Q1087 -1177 1087 -1180 L1087 -1392 Q1087 -1395 1084 -1397 Q1082 -1400 1078 -1400 L867 -1400 Q863 -1400 860 -1397 Q858 -1395 858 -1392 L858 -1180 Q858 -1177 860 -1174 Q863 -1172 867 -1172 L1078 -1172 " />
<glyph unicode="&#xfd;" horiz-adv-x="1786" d="M1286 -992 L1286 -992 Q1286 -995 1288 -997 Q1291 -1000 1295 -1000 L1477 -1000 Q1481 -1000 1483 -997 Q1486 -995 1486 -992 L1486 -712 Q1486 -651 1453 -601 Q1420 -552 1364 -528 L843 -307 L843 -9 Q843 -5 840 -2 Q838 0 835 0 L652 0 Q648 0 645 -2 Q643 -5 643 -9 L643 -307 L122 -528 Q66 -552 33 -602 Q0 -652 0 -712 L0 -992 Q0 -995 2 -997 Q5 -1000 9 -1000 L192 -1000 Q195 -1000 197 -997 Q200 -995 200 -992 L200 -751 Q200 -699 253 -672 L743 -466 L1234 -672 Q1286 -699 1286 -751 L1286 -992 M835 -1496 L562 -1142 Q559 -1137 561 -1132 Q564 -1128 569 -1128 L748 -1128 Q751 -1128 754 -1131 L1108 -1485 Q1112 -1489 1110 -1494 Q1108 -1500 1102 -1500 L841 -1500 Q837 -1500 835 -1496 L835 -1496 " />
<glyph unicode="&#xfe;" horiz-adv-x="1728" d="M1143 -829 L1143 -829 Q1261 -829 1344 -745 Q1428 -661 1428 -543 L1428 -457 Q1428 -339 1344 -255 Q1261 -171 1143 -171 L200 -171 L200 -9 Q200 -5 197 -2 Q195 0 191 0 L8 0 Q5 0 2 -2 Q0 -5 0 -9 L0 -991 Q0 -995 2 -997 Q5 -1000 8 -1000 L191 -1000 Q195 -1000 197 -997 Q200 -995 200 -991 L200 -829 L1143 -829 M1143 -343 L1143 -343 Q1178 -343 1203 -368 Q1228 -393 1228 -429 L1228 -571 Q1228 -607 1203 -632 Q1178 -657 1143 -657 L200 -657 L200 -343 L1143 -343 " />
<glyph unicode="&#xff;" horiz-adv-x="1786" d="M1286 -992 L1286 -992 Q1286 -995 1288 -997 Q1291 -1000 1295 -1000 L1477 -1000 Q1481 -1000 1483 -997 Q1486 -995 1486 -992 L1486 -712 Q1486 -651 1453 -601 Q1420 -552 1364 -528 L843 -307 L843 -9 Q843 -5 840 -2 Q838 0 835 0 L652 0 Q648 0 645 -2 Q643 -5 643 -9 L643 -307 L122 -528 Q66 -552 33 -602 Q0 -652 0 -712 L0 -992 Q0 -995 2 -997 Q5 -1000 9 -1000 L192 -1000 Q195 -1000 197 -997 Q200 -995 200 -992 L200 -751 Q200 -699 253 -672 L743 -466 L1234 -672 Q1286 -699 1286 -751 L1286 -992 M592 -1172 L592 -1172 Q595 -1172 597 -1174 Q600 -1177 600 -1180 L600 -1392 Q600 -1395 597 -1397 Q595 -1400 592 -1400 L380 -1400 Q377 -1400 374 -1397 Q372 -1395 372 -1392 L372 -1180 Q372 -1177 374 -1174 Q377 -1172 380 -1172 L592 -1172 M1106 -1172 L1106 -1172 Q1110 -1172 1112 -1174 Q1115 -1177 1115 -1180 L1115 -1392 Q1115 -1395 1112 -1397 Q1110 -1400 1106 -1400 L895 -1400 Q891 -1400 888 -1397 Q886 -1395 886 -1392 L886 -1180 Q886 -1177 888 -1174 Q891 -1172 895 -1172 L1106 -1172 " />
<glyph unicode="&#x2c6;" horiz-adv-x="1030" d="M727 -1142 L727 -1142 Q730 -1137 727 -1132 Q725 -1128 720 -1128 L569 -1128 Q565 -1128 563 -1131 L365 -1365 L168 -1131 Q165 -1128 161 -1128 L10 -1128 Q5 -1128 2 -1132 Q0 -1137 3 -1142 L248 -1496 Q251 -1500 255 -1500 L475 -1500 Q479 -1500 482 -1496 L727 -1142 " />
<glyph unicode="&#x2c7;" horiz-adv-x="1030" d="M727 -1486 L482 -1132 Q479 -1128 475 -1128 L255 -1128 Q251 -1128 248 -1132 L3 -1486 Q0 -1491 2 -1495 Q5 -1500 10 -1500 L161 -1500 Q165 -1500 168 -1497 L365 -1263 L563 -1497 Q565 -1500 569 -1500 L720 -1500 Q725 -1500 727 -1495 Q730 -1491 727 -1486 L727 -1486 " />
<glyph unicode="&#x2c9;" horiz-adv-x="986" d="M680 -1228 L680 -1228 Q683 -1228 684 -1230 Q686 -1233 686 -1237 L686 -1391 Q686 -1395 684 -1397 Q683 -1400 680 -1400 L7 -1400 Q4 -1400 2 -1397 Q0 -1395 0 -1391 L0 -1237 Q0 -1233 2 -1230 Q4 -1228 7 -1228 L680 -1228 " />
<glyph unicode="&#x2d8;" horiz-adv-x="1042" d="M627 -1493 L627 -1493 Q627 -1496 629 -1498 Q632 -1500 635 -1500 L742 -1500 L742 -1500 Q742 -1397 692 -1313 Q642 -1229 558 -1178 Q474 -1128 371 -1128 L371 -1128 Q268 -1128 184 -1178 Q100 -1229 50 -1313 Q0 -1397 0 -1500 L0 -1500 L107 -1500 Q110 -1500 112 -1498 Q115 -1496 115 -1493 L123 -1465 Q146 -1378 214 -1324 Q283 -1271 371 -1271 L371 -1271 Q459 -1271 527 -1324 Q596 -1378 620 -1465 L627 -1493 " />
<glyph unicode="&#x2d9;" horiz-adv-x="617" d="M152 -1102 L152 -1102 Q155 -1100 158 -1100 Q162 -1100 165 -1102 L314 -1252 Q317 -1255 317 -1258 Q317 -1261 314 -1264 L165 -1413 Q162 -1416 158 -1416 Q155 -1416 152 -1413 L3 -1264 Q0 -1261 0 -1258 Q0 -1255 3 -1252 L152 -1102 " />
<glyph unicode="&#x2da;" horiz-adv-x="728" d="M214 -1385 L214 -1385 Q173 -1385 143 -1356 Q114 -1327 114 -1285 Q114 -1244 143 -1214 Q173 -1185 214 -1185 Q255 -1185 284 -1214 Q314 -1244 314 -1285 Q314 -1327 284 -1356 Q255 -1385 214 -1385 M214 -1500 L214 -1500 L214 -1500 Q303 -1500 365 -1437 Q428 -1374 428 -1285 Q428 -1197 365 -1134 Q303 -1071 214 -1071 Q125 -1071 62 -1134 Q0 -1197 0 -1285 Q0 -1374 62 -1437 Q125 -1500 214 -1500 " />
<glyph unicode="&#x2db;" horiz-adv-x="797" d="M497 439 L497 439 L416 534 Q345 612 246 616 Q148 620 72 548 L72 548 Q0 473 2 376 Q5 279 80 208 L311 0 L382 70 L173 309 Q147 341 148 380 Q149 419 178 449 L178 449 Q207 477 244 479 Q282 482 314 458 L427 369 L497 439 " />
<glyph unicode="&#x2dc;" horiz-adv-x="1014" d="M571 -1392 L571 -1392 Q571 -1395 573 -1397 Q576 -1400 579 -1400 L705 -1400 Q709 -1400 711 -1397 Q714 -1395 714 -1391 L714 -1366 Q714 -1271 642 -1212 Q570 -1153 473 -1170 L246 -1217 Q204 -1225 173 -1199 Q143 -1174 143 -1134 L143 -1134 Q143 -1130 140 -1128 Q138 -1126 135 -1126 L8 -1126 Q5 -1126 2 -1128 Q0 -1131 0 -1134 L0 -1160 Q0 -1255 72 -1313 Q144 -1372 241 -1356 L468 -1308 Q509 -1301 540 -1326 Q571 -1351 571 -1392 L571 -1392 " />
<glyph unicode="&#x2dd;" horiz-adv-x="1224" d="M331 -1497 L331 -1497 Q334 -1500 337 -1500 L514 -1500 Q520 -1500 522 -1495 Q524 -1490 520 -1485 L193 -1131 Q191 -1128 187 -1128 L10 -1128 Q5 -1128 2 -1133 Q0 -1138 4 -1143 L331 -1497 M731 -1497 L731 -1497 Q734 -1500 737 -1500 L914 -1500 Q920 -1500 922 -1495 Q924 -1490 920 -1485 L593 -1131 Q591 -1128 587 -1128 L410 -1128 Q405 -1128 402 -1133 Q400 -1138 404 -1143 L731 -1497 " />
<glyph unicode="&#x37e;" horiz-adv-x="634" d="M136 -138 L136 -138 Q139 -143 144 -143 L324 -143 Q329 -143 331 -139 Q333 -135 331 -130 L141 196 Q138 200 134 200 L9 200 Q4 200 1 196 Q-1 192 1 188 L136 -138 M192 -599 L192 -599 Q195 -599 197 -601 Q200 -604 200 -608 L200 -791 Q200 -794 197 -796 Q195 -799 192 -799 L9 -799 Q5 -799 2 -796 Q0 -794 0 -791 L0 -608 Q0 -604 2 -601 Q5 -599 9 -599 L192 -599 " />
<glyph unicode="&#x2020;" horiz-adv-x="1015" d="M706 -800 L706 -800 Q710 -800 712 -797 Q715 -795 715 -792 L715 -637 Q715 -634 712 -631 Q710 -629 706 -629 L457 -629 L457 -9 Q457 -5 454 -2 Q452 0 449 0 L266 0 Q262 0 259 -2 Q257 -5 257 -9 L257 -629 L9 -629 Q5 -629 2 -631 Q0 -634 0 -637 L0 -792 Q0 -795 2 -797 Q5 -800 9 -800 L257 -800 L257 -992 Q257 -995 259 -997 Q262 -1000 266 -1000 L449 -1000 Q452 -1000 454 -997 Q457 -995 457 -992 L457 -800 L706 -800 " />
<glyph unicode="&#x2021;" horiz-adv-x="1022" d="M714 -372 L714 -372 Q717 -372 719 -369 Q722 -367 722 -363 L722 -209 Q722 -205 719 -202 Q717 -200 714 -200 L465 -200 L465 -9 Q465 -5 462 -2 Q460 0 457 0 L274 0 Q270 0 267 -2 Q265 -5 265 -9 L265 -200 L17 -200 Q13 -200 10 -202 Q8 -205 8 -209 L8 -363 Q8 -367 10 -369 Q13 -372 17 -372 L265 -372 L265 -629 L9 -629 Q5 -629 2 -631 Q0 -634 0 -637 L0 -792 Q0 -795 2 -797 Q5 -800 9 -800 L265 -800 L265 -992 Q265 -995 267 -997 Q270 -1000 274 -1000 L457 -1000 Q460 -1000 462 -997 Q465 -995 465 -992 L465 -800 L706 -800 Q709 -800 711 -797 Q714 -795 714 -792 L714 -637 Q714 -634 711 -631 Q709 -629 706 -629 L465 -629 L465 -372 L714 -372 " />
<glyph unicode="&#x2039;" horiz-adv-x="938" d="M628 -846 L628 -846 Q634 -846 636 -840 Q638 -835 633 -831 L223 -503 L633 -175 Q638 -171 636 -165 Q634 -160 628 -160 L426 -160 Q424 -160 421 -162 L3 -496 Q0 -499 0 -503 Q0 -507 3 -510 L421 -844 Q424 -846 426 -846 L628 -846 " />
<glyph unicode="&#x203a;" horiz-adv-x="937" d="M10 -846 L211 -846 Q214 -846 216 -844 L634 -510 Q637 -507 637 -503 Q637 -499 634 -496 L216 -162 Q214 -160 211 -160 L10 -160 Q4 -160 2 -165 Q0 -171 4 -175 L414 -503 L4 -831 Q0 -835 2 -840 Q4 -846 10 -846 L10 -846 " />
<glyph unicode="&#x2044;" horiz-adv-x="1061" d="M759 -988 L759 -988 Q761 -992 759 -996 Q757 -1000 752 -1000 L571 -1000 Q567 -1000 564 -996 L2 -13 Q0 -9 2 -4 Q5 0 10 0 L190 0 Q195 0 197 -5 L759 -988 " />
<glyph unicode="&#x20a3;" horiz-adv-x="1928" d="M1620 -1000 L1620 -1000 Q1623 -1000 1625 -997 Q1628 -995 1628 -991 L1628 -837 Q1628 -833 1625 -830 Q1623 -828 1620 -828 L486 -828 Q450 -828 425 -803 Q400 -778 400 -743 L400 -643 L1477 -643 Q1480 -643 1483 -640 Q1486 -638 1486 -634 L1486 -480 Q1486 -476 1483 -473 Q1480 -471 1477 -471 L400 -471 L400 -307 L848 -307 Q852 -307 854 -304 Q857 -302 857 -298 L857 -173 Q857 -169 854 -166 Q852 -164 848 -164 L400 -164 L400 -8 Q400 -5 397 -2 Q395 0 391 0 L208 0 Q205 0 202 -2 Q200 -5 200 -8 L200 -164 L8 -164 Q5 -164 2 -166 Q0 -169 0 -173 L0 -298 Q0 -302 2 -304 Q5 -307 8 -307 L200 -307 L200 -743 Q200 -849 275 -924 Q350 -1000 457 -1000 L1620 -1000 " />
<glyph unicode="&#x20a4;" horiz-adv-x="1728" d="M1420 -172 L1420 -172 Q1423 -172 1425 -169 Q1428 -167 1428 -163 L1428 -9 Q1428 -5 1425 -2 Q1423 0 1420 0 L8 0 Q5 0 2 -2 Q0 -5 0 -9 L0 -163 Q0 -167 2 -169 Q5 -172 8 -172 L114 -172 Q149 -172 174 -197 Q200 -222 200 -257 L200 -329 L8 -329 Q5 -329 2 -331 Q0 -334 0 -338 L0 -435 Q0 -438 2 -440 Q5 -443 8 -443 L200 -443 L200 -557 L8 -557 Q5 -557 2 -560 Q0 -563 0 -566 L0 -663 Q0 -667 2 -669 Q5 -672 8 -672 L200 -672 L200 -743 Q200 -850 275 -925 Q350 -1000 457 -1000 L1277 -1000 Q1280 -1000 1282 -997 Q1285 -995 1285 -992 L1285 -838 Q1285 -834 1282 -831 Q1280 -829 1277 -829 L485 -829 Q450 -829 425 -804 Q400 -779 400 -743 L400 -672 L848 -672 Q852 -672 854 -669 Q857 -667 857 -663 L857 -566 Q857 -563 854 -560 Q852 -557 848 -557 L400 -557 L400 -443 L848 -443 Q852 -443 854 -440 Q857 -438 857 -435 L857 -338 Q857 -334 854 -331 Q852 -329 848 -329 L400 -329 L400 -172 L1420 -172 " />
<glyph unicode="&#x20a7;" horiz-adv-x="3157" d="M2571 -586 L2571 -586 Q2689 -586 2773 -502 Q2857 -419 2857 -300 L2857 -286 Q2857 -168 2773 -84 Q2689 0 2571 0 L1780 0 Q1776 0 1773 -2 Q1771 -5 1771 -9 L1771 -163 Q1771 -167 1773 -169 Q1776 -172 1780 -172 L2571 -172 Q2607 -172 2632 -197 Q2657 -222 2657 -257 L2657 -329 Q2657 -364 2632 -389 Q2607 -414 2571 -414 L2000 -414 Q1881 -414 1797 -498 Q1714 -582 1714 -700 L1714 -714 Q1714 -775 1738 -829 L1528 -829 L1528 -9 Q1528 -5 1525 -2 Q1523 0 1520 0 L1337 0 Q1333 0 1330 -2 Q1328 -5 1328 -9 L1328 -829 L1119 -829 Q1143 -775 1143 -714 L1143 -614 Q1143 -496 1059 -412 Q975 -329 857 -329 L200 -329 L200 -9 Q200 -5 197 -2 Q195 0 191 0 L8 0 Q5 0 2 -2 Q0 -5 0 -9 L0 -992 Q0 -995 2 -997 Q5 -1000 8 -1000 L2791 -1000 Q2795 -1000 2797 -997 Q2800 -995 2800 -992 L2800 -837 Q2800 -834 2797 -831 Q2795 -829 2791 -829 L2000 -829 Q1964 -829 1939 -804 Q1914 -779 1914 -743 L1914 -672 Q1914 -636 1939 -611 Q1964 -586 2000 -586 L2571 -586 M943 -586 L943 -586 L943 -743 Q943 -779 917 -804 Q892 -829 857 -829 L200 -829 L200 -500 L857 -500 Q892 -500 917 -525 Q943 -550 943 -586 " />
<glyph unicode="&#x20ac;" horiz-adv-x="1928" d="M485 -829 L485 -829 Q450 -829 425 -804 Q400 -779 400 -743 L400 -672 L848 -672 Q852 -672 854 -669 Q857 -667 857 -663 L857 -566 Q857 -563 854 -560 Q852 -558 848 -558 L400 -558 L400 -443 L848 -443 Q852 -443 854 -440 Q857 -438 857 -435 L857 -338 Q857 -334 854 -331 Q852 -329 848 -329 L400 -329 L400 -258 Q400 -222 425 -197 Q450 -172 485 -172 L1620 -172 Q1623 -172 1625 -169 Q1628 -167 1628 -163 L1628 -9 Q1628 -5 1625 -2 Q1623 0 1620 0 L485 0 Q367 0 283 -84 Q200 -168 200 -286 L200 -329 L8 -329 Q5 -329 2 -331 Q0 -334 0 -338 L0 -435 Q0 -438 2 -440 Q5 -443 8 -443 L200 -443 L200 -558 L8 -558 Q5 -558 2 -560 Q0 -563 0 -566 L0 -663 Q0 -667 2 -669 Q5 -672 8 -672 L200 -672 L200 -715 Q200 -833 283 -916 Q367 -1000 485 -1000 L1620 -1000 Q1623 -1000 1625 -997 Q1628 -995 1628 -992 L1628 -838 Q1628 -834 1625 -831 Q1623 -829 1620 -829 L485 -829 " />
<glyph unicode="&#x2116;" horiz-adv-x="2814" d="M1228 -992 L1228 -992 Q1228 -995 1230 -997 Q1233 -1000 1237 -1000 L1420 -1000 Q1423 -1000 1425 -997 Q1428 -995 1428 -992 L1428 -9 Q1428 -5 1425 -2 Q1423 0 1420 0 L1048 0 L1046 0 Q931 -4 865 -98 L400 -791 Q371 -829 328 -829 L200 -829 L200 -9 Q200 -5 197 -2 Q195 0 191 0 L8 0 Q5 0 2 -2 Q0 -5 0 -9 L0 -992 Q0 -995 2 -997 Q5 -1000 8 -1000 L380 -1000 L382 -1000 Q497 -997 563 -903 L1028 -210 Q1057 -172 1100 -172 L1228 -172 L1228 -992 M2314 -943 L2314 -943 Q2397 -943 2455 -884 Q2514 -826 2514 -743 L2514 -486 Q2514 -403 2455 -344 Q2397 -286 2314 -286 L1800 -286 Q1717 -286 1658 -344 Q1600 -403 1600 -486 L1600 -743 Q1600 -826 1658 -884 Q1717 -943 1800 -943 L2314 -943 M1777 -760 L1777 -760 L1777 -469 Q1777 -459 1783 -452 Q1790 -446 1800 -446 L2314 -446 Q2323 -446 2330 -452 Q2337 -459 2337 -469 L2337 -760 Q2337 -770 2330 -776 Q2323 -783 2314 -783 L1800 -783 Q1790 -783 1783 -776 Q1777 -770 1777 -760 M2508 0 L2508 0 Q2510 0 2512 -2 Q2514 -5 2514 -9 L2514 -135 Q2514 -138 2512 -140 Q2510 -143 2508 -143 L1606 -143 Q1603 -143 1601 -140 Q1600 -138 1600 -135 L1600 -9 Q1600 -5 1601 -2 Q1603 0 1606 0 L2508 0 " />
<glyph unicode="&#x2122;" horiz-adv-x="2305" d="M0 -991 L0 -991 Q0 -995 2 -997 Q5 -1000 8 -1000 L905 -1000 Q909 -1000 911 -997 Q914 -995 914 -991 L914 -849 Q914 -845 911 -842 Q909 -840 905 -840 L545 -840 L545 -351 Q545 -348 542 -345 Q540 -343 537 -343 L377 -343 Q373 -343 370 -345 Q368 -348 368 -351 L368 -840 L8 -840 Q5 -840 2 -842 Q0 -845 0 -849 L0 -991 M1751 -1000 L1751 -1000 L1997 -1000 Q2000 -1000 2002 -997 Q2005 -995 2005 -991 L2005 -351 Q2005 -348 2002 -345 Q2000 -343 1997 -343 L1837 -343 Q1833 -343 1830 -345 Q1828 -348 1828 -351 L1828 -840 L1791 -840 Q1776 -840 1769 -825 L1602 -349 Q1599 -343 1594 -343 L1468 -343 Q1463 -343 1460 -349 L1293 -825 Q1286 -840 1271 -840 L1234 -840 L1234 -351 Q1234 -348 1231 -345 Q1229 -343 1225 -343 L1065 -343 Q1062 -343 1059 -345 Q1057 -348 1057 -351 L1057 -991 Q1057 -995 1059 -997 Q1062 -1000 1065 -1000 L1311 -1000 Q1318 -1000 1325 -999 Q1413 -987 1447 -900 L1531 -658 L1615 -900 Q1649 -987 1736 -999 Q1744 -1000 1751 -1000 " />
<glyph unicode="&#x2212;" horiz-adv-x="1015" d="M709 -419 L709 -419 Q711 -419 713 -421 Q715 -424 715 -427 L715 -582 Q715 -585 713 -587 Q711 -590 709 -590 L7 -590 Q4 -590 2 -587 Q0 -585 0 -582 L0 -427 Q0 -424 2 -421 Q4 -419 7 -419 L709 -419 " />
<glyph unicode="&#x2215;" horiz-adv-x="1061" d="M759 -988 L759 -988 Q761 -992 759 -996 Q757 -1000 752 -1000 L571 -1000 Q567 -1000 564 -996 L2 -13 Q0 -9 2 -4 Q5 0 10 0 L190 0 Q195 0 197 -5 L759 -988 " />
<glyph unicode="&#x2264;" horiz-adv-x="958" d="M658 -1095 L658 -943 Q658 -938 653 -935 L165 -680 L653 -426 Q658 -423 658 -418 L658 -266 Q658 -261 654 -258 Q650 -256 645 -258 L5 -592 Q0 -595 0 -600 L0 -761 Q0 -766 5 -768 L645 -1102 Q650 -1104 654 -1102 Q658 -1100 658 -1095 L658 -1095 M709 0 L709 0 Q711 0 713 -2 Q715 -5 715 -8 L715 -163 Q715 -166 713 -168 Q711 -171 709 -171 L7 -171 Q4 -171 2 -168 Q0 -166 0 -163 L0 -8 Q0 -5 2 -2 Q4 0 7 0 L709 0 " />
<glyph unicode="&#x2265;" horiz-adv-x="958" d="M0 -1095 L0 -1095 Q0 -1100 4 -1102 Q8 -1104 13 -1102 L653 -768 Q658 -766 658 -761 L658 -600 Q658 -595 653 -592 L13 -258 Q8 -256 4 -258 Q0 -261 0 -266 L0 -418 Q0 -423 5 -426 L493 -680 L5 -935 Q0 -938 0 -943 L0 -1095 M709 0 L709 0 Q711 0 713 -2 Q715 -5 715 -8 L715 -163 Q715 -166 713 -168 Q711 -171 709 -171 L7 -171 Q4 -171 2 -168 Q0 -166 0 -163 L0 -8 Q0 -5 2 -2 Q4 0 7 0 L709 0 " />
</font>
</defs>
</svg>
